<svg width="80" height="96" viewBox="0 0 80 96" fill="none" xmlns="http://www.w3.org/2000/svg">
<g clip-path="url(#clip0_352_1619)">
<path d="M73.289 55.0292C74.9844 59.0517 76.731 63.0571 78.3625 67.105C80.1772 71.6074 79.1463 73.3446 74.3582 74.0879C71.9472 74.4617 71.977 74.4447 73.3572 76.6152C77.0079 82.3706 75.862 89.0307 68.8843 91.7364C63.01 94.0131 56.7437 94.7479 50.7331 93.1593C42.2006 90.8996 41.3912 86.2656 44.0196 79.4058C44.3646 78.5011 45.1314 77.7705 45.1782 76.6237C44.8034 76.6025 44.4711 76.5557 44.1346 76.5685C39.5084 76.7129 39.7086 76.7086 39.862 81.2875C40.0749 87.6503 36.8034 92.8747 28.7352 94.5398C22.3028 95.8693 16.19 94.6502 10.3582 91.9063C6.57973 90.1266 5.06322 85.7049 6.77142 81.7972C7.35928 80.4507 8.17717 79.2019 9.08878 77.5497C7.49134 77.5497 6.06003 77.5666 4.62872 77.5497C1.5957 77.5072 0.211249 76.1055 0.505179 72.9921C0.960983 68.1244 2.38803 63.4903 4.33479 59.0092C4.87153 57.7774 5.62126 56.5456 5.28047 55.0845C9.80444 54.8339 14.3284 54.5875 18.8524 54.3369C18.6777 57.2507 20.8502 58.5547 22.8524 59.795C26.0728 61.7871 29.6511 62.9212 33.4338 63.3119C38.6564 63.8556 43.9173 64.0595 49.076 63.1378C54.5244 62.1651 58.1495 58.8265 59.6192 53.377C64.2411 53.3854 68.7778 54.0863 73.2848 55.0292H73.289Z" fill="#97BFFF"/>
<path d="M59.3381 44.0877C58.4946 39.4154 56.3008 35.3165 53.8599 31.3323C53.4637 30.6825 52.8801 30.126 52.3136 29.5993C49.4722 26.9531 47.0356 27.3014 45.1272 30.7249C43.96 32.819 42.9078 34.9852 41.9451 37.1769C41.4637 38.2728 40.7779 38.5744 39.6575 38.5999C38.4094 38.6253 38.3583 37.7206 38.107 36.9561C37.2507 34.3226 36.2624 31.7698 34.2092 29.7777C32.4243 28.0447 30.5287 27.8706 28.4882 29.3232C27.0697 30.3299 26.1453 31.7613 25.2337 33.1885C22.9504 36.7777 21.1783 40.6047 19.9302 44.6696C16.5606 44.2958 13.1996 43.8583 9.94507 42.8559C10.7715 42.8644 11.0569 42.3207 11.4531 41.6751C14.4392 36.7904 16.7992 31.5659 19.9344 26.7535C27.3934 15.3149 44.6714 13.909 54.3796 22.5145C60.1772 27.654 63.7726 34.072 66.993 40.8553C64.5393 42.1635 61.9792 43.2254 59.3338 44.0834L59.3381 44.0877Z" fill="#97BFFF"/>
<path d="M27.2019 49.9747C27.2061 49.8855 27.1635 49.3758 27.2743 48.9043C27.5214 47.8212 28.1902 47.1331 29.3659 47.1968C30.5288 47.2605 31.2871 47.9401 31.2019 49.0997C30.9165 52.9097 33.2636 54.6725 37.1529 54.9443C38.6353 55.0462 40.1135 55.3733 41.5874 55.3393C45.4 55.2586 47.8962 52.7441 48.1135 48.9468C48.1305 48.6665 48.1135 48.3819 48.1263 48.0973C48.1859 46.8867 48.7269 46.067 50.0091 45.9353C51.3723 45.7951 52.0879 46.4705 52.3904 47.7872C53.1912 51.2787 50.1327 57.204 46.7375 58.5462C41.6896 60.5426 36.6843 59.744 31.8281 57.9473C29.1273 56.9449 27.2743 53.5086 27.2019 49.9747Z" fill="#C6868B"/>
<path d="M18.8524 54.3369C14.3284 54.5875 9.80446 54.8339 5.2805 55.0845C4.79062 55.076 4.29647 55.1015 3.81085 55.0548C2.56271 54.9358 1.87688 54.1925 1.90669 52.9777C1.93225 51.8266 2.69051 51.181 3.81511 51.1895C6.37954 51.215 8.88859 50.374 11.4658 50.7478C13.945 50.9049 16.42 50.9007 18.895 50.6373C19.3891 50.6671 19.8918 50.6501 20.3774 50.7435C21.4168 50.9389 22.0217 51.5633 21.945 52.6592C21.8684 53.755 21.2294 54.2945 20.1261 54.2987C19.7001 54.2987 19.2741 54.3242 18.8524 54.3369Z" fill="#090809"/>
<path d="M59.3381 44.0876C61.9835 43.2296 64.5436 42.1677 66.9973 40.8594C68.5564 40.5961 69.9622 39.9207 71.3466 39.2114C72.582 38.5785 73.6171 38.8376 74.2646 39.9675C75.0016 41.2587 74.1837 42.1125 73.1059 42.7071C68.8333 45.0645 64.1262 46.36 59.6193 48.1355C58.5969 48.539 57.7705 48.0632 57.3104 47.1755C56.8163 46.2198 57.1826 45.3916 58.0729 44.8181C58.4819 44.5548 58.9164 44.3297 59.3424 44.0876H59.3381Z" fill="#090809"/>
<path d="M9.94928 42.8601C13.2038 43.8582 16.5606 44.3 19.9344 44.6738C20.9014 44.8904 21.8811 45.0518 22.8268 45.3364C23.862 45.6507 24.2709 46.4407 24.075 47.4856C23.8875 48.4965 23.1591 48.8491 22.2006 48.8024C21.2123 48.7556 20.224 48.6834 19.2358 48.624C18.567 47.9868 17.7704 48.1695 16.9823 48.2757C15.0355 48.0505 13.0931 47.7447 11.142 47.6258C9.68517 47.5366 8.59465 46.6234 7.28262 46.2114C6.4349 45.9438 6.07708 45.0645 6.28155 44.1598C6.48602 43.2508 7.12926 42.6987 8.07495 42.6732C8.69689 42.6562 9.32309 42.7963 9.94928 42.8643V42.8601Z" fill="#090809"/>
<path d="M73.289 55.0292C68.7821 54.0863 64.2453 53.3854 59.6234 53.3769C58.5329 52.9437 57.7107 52.2598 58.1282 50.9771C58.5158 49.7793 59.6532 49.397 60.7182 49.5966C64.6756 50.323 68.7608 49.5117 72.6884 50.7647C73.9152 51.1555 75.1506 51.3848 75.3337 52.761C75.5084 54.082 74.3753 54.6257 73.289 55.0292Z" fill="#090809"/>
<path d="M40.633 7.09173C40.633 8.64208 40.5734 10.2009 40.6501 11.747C40.7353 13.4036 39.7853 13.8411 38.4051 13.8198C36.9014 13.7943 35.5723 13.2379 35.7214 11.5431C35.9855 8.57837 35.7597 5.62209 35.8364 2.6658C35.8833 0.839366 36.8418 0.240465 38.5414 0.206484C40.3604 0.168256 40.6373 1.18766 40.5776 2.65306C40.5223 4.1312 40.5649 5.61784 40.5649 7.09598C40.5862 7.09598 40.6075 7.09598 40.633 7.09598V7.09173Z" fill="#E9C172"/>
<path d="M21.4168 19.0611C18.6394 18.1309 15.8023 17.2347 13.5489 15.2341C12.4967 14.2996 12.7778 12.9149 13.4211 11.8913C14.1112 10.7954 15.5169 11.097 16.3093 11.577C18.2816 12.762 20.5265 13.2038 22.5627 14.185C23.9898 14.8731 24.4882 15.8712 24.1942 17.2135C23.9003 18.5429 22.8907 19.1758 21.4168 19.0569V19.0611Z" fill="#E9C172"/>
<path d="M60.8759 10.9356C61.7193 10.9016 62.5372 10.9016 62.8184 11.8573C63.1677 13.0339 63.4233 14.4058 62.4691 15.2596C60.6032 16.9374 58.665 18.6321 56.1347 19.265C54.993 19.5496 53.6597 19.762 53.1017 18.2201C52.5734 16.7547 52.9781 15.5484 54.4307 14.8943C55.9558 14.2062 57.0548 13.0254 58.2263 11.9168C58.976 11.2074 59.8535 10.8167 60.8674 10.9398L60.8759 10.9356Z" fill="#E9C172"/>
<path d="M36.4031 45.3407C38.2178 45.3959 39.6619 47.1416 39.5511 49.1422C39.4489 51.0451 37.9494 52.5785 36.1986 52.57C34.3115 52.5657 33.0889 51.1385 33.1741 49.0403C33.2636 46.8061 34.5926 45.2812 36.3988 45.3407H36.4031Z" fill="#090809"/>
<path d="M40.4287 48.7599C40.4756 46.7211 41.8345 45.1877 43.5767 45.2047C45.3574 45.2217 46.5842 46.6234 46.5544 48.6028C46.5246 50.6288 45.1657 52.1409 43.385 52.124C41.5576 52.1112 40.3776 50.769 40.4244 48.7557L40.4287 48.7599Z" fill="#090809"/>
<path d="M16.9823 48.2757C17.7661 48.1695 18.567 47.9869 19.2358 48.624C19.0697 49.2866 18.6224 49.9025 18.895 50.6373C16.4243 50.9007 13.9451 50.9049 11.4658 50.7478C13.0675 50.0469 14.5968 49.1422 16.4158 49.07C16.9312 49.0488 17.2251 48.8449 16.9823 48.2757Z" fill="#97BFFF"/>
</g>
<defs>
<clipPath id="clip0_352_1619">
<rect width="78.7349" height="94.8856" fill="white" transform="translate(0.471191 0.197876)"/>
</clipPath>
</defs>
</svg>
