<svg width="73" height="68" viewBox="0 0 73 68" fill="none" xmlns="http://www.w3.org/2000/svg">
<g clip-path="url(#clip0_352_1595)">
<path d="M15.509 10.102C17.004 6.28788 20.0347 3.91048 23.3663 2.00513C27.5031 -0.35859 31.7988 -0.0438832 35.8983 2.27195C37.8871 3.39737 39.8895 4.51253 41.2662 6.55128C42.4872 8.35742 43.0995 10.3449 43.4343 12.4007C43.6508 13.728 43.7895 14.1795 45.3555 13.9845C51.5792 13.208 57.238 15.0073 62.4774 18.3425C63.4583 18.9172 63.6748 20.4942 65.1462 20.4223C65.1698 20.7405 65.1935 21.0586 65.2172 21.3767C65.3998 22.5192 65.64 23.6378 66.5533 24.4554C66.9625 25.8716 67.4022 27.2809 67.7777 28.7073C69.5027 35.2512 66.2454 41.8806 58.7229 42.8965C54.6369 43.4473 50.5916 44.3777 46.4785 44.8258C39.5648 45.5784 32.6511 45.7665 25.8998 43.8612C22.054 42.7768 18.2826 41.4359 15.1437 38.6001C12.2415 35.9832 10.7769 32.949 10.8953 29.0734C10.9765 26.4052 11.0746 23.7336 11.1625 21.0654C11.3722 20.7986 11.6259 20.8978 11.91 20.9115C14.0647 21.021 16.2024 21.7359 18.3874 20.997C20.701 20.2102 21.4587 18.3562 21.7597 16.1806C21.9897 14.5147 21.2557 13.3175 20.0144 12.2228C18.6817 11.0495 16.9431 10.9469 15.5123 10.1054L15.509 10.102ZM25.6664 12.5273C26.0249 10.6904 25.5446 9.66756 24.3574 9.85912C23.2716 10.0336 22.6256 10.8238 22.2535 11.8295C22.01 12.4828 22.1656 13.0712 22.7338 13.4748C23.7249 14.1727 24.3777 13.4748 25.0508 12.8591C25.1117 12.8044 25.2571 12.8386 25.362 12.8317C25.3383 13.0575 25.3485 13.2935 25.2842 13.5056C25.044 14.3095 25.2977 15.1202 25.9404 15.3939C26.9382 15.8215 27.7466 15.2023 28.3554 14.3574C28.8662 13.6561 29.0793 12.907 28.5415 12.1681C28.1018 11.5661 27.4422 11.3848 26.7522 11.7542C26.3632 11.9629 26.0283 12.2673 25.6664 12.5273ZM55.442 24.1886C55.398 23.9217 55.3472 23.2957 55.1917 22.6937C54.4813 19.9263 52.6312 18.2981 49.9455 17.7473C46.7525 17.094 43.6542 17.2821 41.0903 19.6869C40.5051 20.2342 40.2887 21.0346 40.8637 21.6777C41.4015 22.2832 42.149 22.2764 42.8492 21.7735C44.9902 20.2342 47.314 20.0221 49.7392 20.9252C52.665 22.0164 53.2298 25.1737 50.9738 27.3322C49.8102 28.4439 48.393 28.8715 46.9216 29.2889C45.3555 29.737 45.0308 30.5648 45.7682 31.9433C46.8168 33.9 46.2891 35.1657 44.1446 35.7335C42.9506 36.0516 41.8108 35.8943 40.7487 35.1965C38.8105 33.9274 36.9028 32.6685 35.7528 30.493C35.3232 29.6788 34.5182 28.8544 33.3986 29.6617C32.4347 30.3561 32.7492 31.2387 33.1923 32.0904C34.941 35.4496 37.8398 37.5362 41.2154 38.7643C45.1052 40.177 49.7189 37.0779 49.543 33.3322C49.4855 32.0904 49.959 31.6868 50.8858 31.1839C53.4971 29.7712 55.3811 27.7803 55.4386 24.1817L55.442 24.1886ZM31.217 13.4577C31.2068 15.1202 31.6635 15.9241 32.6714 15.8112C34.0176 15.6641 34.4066 14.6105 34.3796 13.4612C34.3085 10.3517 33.2532 7.59802 30.7705 5.69952C28.9846 4.33465 26.8604 3.6505 24.5637 4.30728C23.8162 4.51937 22.9503 4.83407 23.1363 5.89792C23.3122 6.90019 24.1342 7.03702 24.9662 6.99598C29.3296 6.78731 30.9904 10.0507 31.2136 13.4543L31.217 13.4577Z" fill="#F8B621"/>
<path d="M20.7991 54.1918C21.7022 51.9478 22.5613 49.974 23.2919 47.9524C23.7722 46.6251 24.4487 46.242 25.8491 46.6354C28.6531 47.4221 31.4977 48.0823 34.3525 48.6707C35.5938 48.9273 35.9456 49.5806 35.7731 50.706C35.0222 55.5806 34.2781 60.4551 33.5035 65.3228C33.1788 67.3547 32.4245 67.9191 30.3003 67.9876C23.2108 68.2133 16.4121 66.568 9.63705 64.7584C8.67306 64.5018 8.0879 63.8109 7.84775 62.8907C6.79919 58.8884 7.2795 55.2522 10.3744 52.2283C13.307 49.3651 16.8585 49.478 19.5104 52.5772C19.9027 53.039 20.268 53.5213 20.8025 54.1883L20.7991 54.1918Z" fill="#582E61"/>
<path d="M45.9949 53.9078C45.8122 52.8166 45.6769 51.9341 45.5145 51.0584C45.1661 49.1735 45.4334 48.5578 47.2396 48.291C49.9557 47.8874 52.6684 47.3811 55.4352 47.34C56.7307 47.3229 57.2583 47.8121 57.5289 49.1633C58.3509 53.2647 59.3757 57.3217 60.3228 61.3992C60.36 61.5634 60.4311 61.7242 60.4615 61.8918C61.1211 65.4528 60.8606 65.9385 57.3057 66.4516C51.8701 67.2384 46.4109 67.8473 40.9111 67.9602C38.0427 68.0183 37.4305 67.5531 36.7033 64.6831C36.2873 63.0378 35.9727 61.3958 36.3583 59.6581C37.5794 54.1918 40.5255 52.3411 45.9881 53.9113L45.9949 53.9078Z" fill="#582E61"/>
<path d="M15.8371 10.0951C17.2679 10.9777 19.0098 11.0837 20.3391 12.3084C21.5805 13.4509 22.3686 14.7097 22.0845 16.4406C21.6583 19.0506 20.5793 20.867 18.7122 21.4725C16.1957 22.2866 4.42818 20.2068 3.35933 19.3893C-0.418845 17.07 -0.743558 12.1989 2.68961 9.27074C3.52507 8.55923 4.48906 8.42582 5.53762 8.48056C9.02152 8.66528 12.4276 9.37337 15.8337 10.0917L15.8371 10.0951Z" fill="#C6868B"/>
<path d="M65.1463 20.4223C63.6749 20.4907 63.4584 18.9172 62.4775 18.3425C64.463 16.9948 66.4519 15.6504 68.4374 14.3026C68.9989 13.9229 69.5502 13.5022 70.2808 13.5809C71.0351 13.663 71.4985 14.1213 71.7183 14.8294C71.972 15.6504 71.6575 16.3106 70.9877 16.745C69.0564 17.9936 67.0979 19.2011 65.1497 20.4223H65.1463Z" fill="#582E61"/>
<path d="M66.5499 24.4554C65.6401 23.6344 65.3965 22.5193 65.2139 21.3767C66.8949 20.9834 68.5862 20.6344 70.2503 20.1761C71.4781 19.8374 72.5639 19.8511 72.9157 21.2912C73.2607 22.6937 72.1749 23.1624 71.1027 23.436C69.5941 23.8191 68.0653 24.1202 66.5465 24.4554H66.5499Z" fill="#582E61"/>
<path d="M55.442 24.1885C55.3845 27.7871 53.4971 29.778 50.8893 31.1907C49.9625 31.6936 49.489 32.0938 49.5465 33.3389C49.7223 37.0812 45.1087 40.1838 41.2189 38.7711C37.8432 37.543 34.9445 35.4564 33.1958 32.0972C32.7527 31.2455 32.4381 30.3629 33.4021 29.6685C34.5217 28.8612 35.3233 29.6856 35.7563 30.4997C36.9063 32.6753 38.8106 33.9342 40.7521 35.2032C41.8142 35.8977 42.9541 36.055 44.1481 35.7403C46.2892 35.1725 46.8202 33.9068 45.7717 31.9501C45.0343 30.575 45.359 29.7438 46.9251 29.2956C48.393 28.8749 49.8103 28.4507 50.9772 27.339C53.2333 25.1839 52.6684 22.0232 49.7426 20.932C47.3174 20.0255 44.9971 20.241 42.8526 21.7803C42.1558 22.2797 41.4083 22.2866 40.8671 21.6845C40.2955 21.0414 40.512 20.241 41.0938 19.6937C43.6543 17.2889 46.7526 17.1007 49.949 17.7541C52.6346 18.3048 54.4848 19.9331 55.1951 22.7005C55.3473 23.2991 55.4014 23.9251 55.4454 24.1953L55.442 24.1885Z" fill="#5A739C"/>
<path d="M31.2171 13.4577C30.9938 10.0507 29.333 6.78729 24.9697 6.99937C24.1376 7.04042 23.3157 6.90359 23.1398 5.90132C22.9538 4.84089 23.8197 4.52619 24.5672 4.31068C26.8639 3.65732 28.9914 4.33805 30.774 5.70292C33.2567 7.60142 34.312 10.3551 34.383 13.4645C34.4101 14.6139 34.0211 15.6641 32.6749 15.8146C31.6669 15.9241 31.2103 15.1236 31.2204 13.4611L31.2171 13.4577Z" fill="#5A739C"/>
<path d="M25.3587 12.8282C25.2538 12.8351 25.1084 12.8009 25.0475 12.8556C24.3744 13.4679 23.7216 14.1692 22.7305 13.4713C22.1623 13.0711 22.0067 12.4793 22.2502 11.826C22.6223 10.8203 23.2683 10.0301 24.3541 9.85563C25.5447 9.66407 26.0216 10.6869 25.6631 12.5238L25.6969 12.4862C25.3249 12.3596 25.2877 12.5717 25.3282 12.859L25.3587 12.8248V12.8282Z" fill="#582E61"/>
<path d="M25.6664 12.5273C26.025 12.2673 26.3632 11.9594 26.7522 11.7542C27.4422 11.3848 28.1052 11.5661 28.5415 12.1681C29.0793 12.907 28.8662 13.6561 28.3555 14.3574C27.7433 15.2023 26.9382 15.8214 25.9404 15.3939C25.2978 15.1168 25.0441 14.3095 25.2842 13.5056C25.3485 13.2935 25.3383 13.0575 25.362 12.8317L25.3316 12.8659C25.4534 12.7428 25.5785 12.6162 25.7003 12.4931L25.6664 12.5307V12.5273Z" fill="#582E61"/>
<path d="M25.7004 12.4897C25.5786 12.6128 25.4535 12.7394 25.3317 12.8625C25.2945 12.5752 25.3317 12.3631 25.7004 12.4897Z" fill="#F8B621"/>
</g>
<defs>
<clipPath id="clip0_352_1595">
<rect width="72.6783" height="67.6312" fill="white" transform="translate(0.30835 0.376831)"/>
</clipPath>
</defs>
</svg>
