<svg width="30" height="28" viewBox="0 0 30 28" fill="none" xmlns="http://www.w3.org/2000/svg">
<g clip-path="url(#clip0_241_3377)">
<path d="M6.27458 4.0263C6.8917 2.44722 8.14269 1.46295 9.51794 0.674119C11.2255 -0.304486 12.9986 -0.174195 14.6908 0.784583C15.5118 1.25052 16.3383 1.7122 16.9066 2.55627C17.4106 3.30403 17.6633 4.12685 17.8016 4.978C17.8909 5.52749 17.9482 5.71443 18.5946 5.63371C21.1636 5.31222 23.4994 6.05715 25.6621 7.43796C26.067 7.67589 26.1564 8.32876 26.7637 8.29902C26.7735 8.43073 26.7833 8.56244 26.793 8.69415C26.8684 9.16716 26.9676 9.63027 27.3445 9.96874C27.5135 10.5551 27.695 11.1385 27.85 11.7291C28.562 14.4383 27.2175 17.1829 24.1123 17.6036C22.4257 17.8316 20.7559 18.2168 19.0581 18.4023C16.2043 18.7139 13.3505 18.7918 10.5637 18.0029C8.97622 17.554 7.41946 16.9988 6.12379 15.8248C4.92586 14.7414 4.32131 13.4852 4.37018 11.8806C4.40368 10.776 4.44417 9.66992 4.48048 8.56527C4.56704 8.45481 4.67175 8.49588 4.78903 8.50154C5.67841 8.54686 6.5608 8.84285 7.46274 8.53695C8.41774 8.21122 8.73049 7.44363 8.85475 6.54292C8.94969 5.85322 8.64671 5.35754 8.13431 4.90435C7.58421 4.41859 6.86657 4.37611 6.27598 4.02772L6.27458 4.0263ZM10.4674 5.0304C10.6153 4.26989 10.4171 3.84644 9.92702 3.92575C9.47885 3.99798 9.21217 4.32512 9.05859 4.74149C8.95807 5.01199 9.02229 5.25558 9.25685 5.42269C9.66594 5.7116 9.9354 5.42269 10.2132 5.16777C10.2384 5.14511 10.2984 5.15927 10.3417 5.15644C10.3319 5.24991 10.3361 5.34763 10.3096 5.43544C10.2105 5.76825 10.3152 6.10389 10.5804 6.21719C10.9923 6.39421 11.326 6.13788 11.5773 5.78807C11.7881 5.49775 11.8761 5.1876 11.6541 4.88169C11.4726 4.63244 11.2004 4.55738 10.9155 4.71033C10.755 4.79672 10.6167 4.92277 10.4674 5.0304ZM22.758 9.85828C22.7399 9.74781 22.7189 9.48864 22.6547 9.23939C22.3615 8.09367 21.5978 7.41955 20.4892 7.19154C19.1712 6.92104 17.8923 6.99894 16.834 7.99454C16.5925 8.22113 16.5031 8.55253 16.7404 8.81877C16.9624 9.06944 17.271 9.06661 17.56 8.85843C18.4438 8.22113 19.403 8.13333 20.4041 8.50721C21.6118 8.95898 21.8449 10.2661 20.9137 11.1598C20.4334 11.62 19.8484 11.7971 19.241 11.9699C18.5946 12.1554 18.4606 12.4981 18.7649 13.0688C19.1977 13.8789 18.9799 14.4029 18.0948 14.638C17.6019 14.7697 17.1314 14.7046 16.693 14.4157C15.893 13.8902 15.1055 13.3691 14.6308 12.4684C14.4535 12.1313 14.1212 11.79 13.659 12.1242C13.2611 12.4117 13.391 12.7771 13.5739 13.1297C14.2957 14.5205 15.4923 15.3844 16.8857 15.8928C18.4913 16.4777 20.3957 15.1946 20.3231 13.6438C20.2993 13.1297 20.4948 12.9626 20.8774 12.7544C21.9552 12.1695 22.7329 11.3453 22.7566 9.85544L22.758 9.85828ZM12.7585 5.41561C12.7543 6.10389 12.9428 6.4367 13.3589 6.38996C13.9146 6.32907 14.0751 5.89287 14.0639 5.41702C14.0346 4.12968 13.599 2.98963 12.5742 2.20363C11.837 1.63856 10.9602 1.35532 10.0122 1.62723C9.70363 1.71504 9.34621 1.84533 9.423 2.28577C9.4956 2.70072 9.83488 2.75737 10.1783 2.74038C11.9794 2.65399 12.665 4.00506 12.7571 5.41419L12.7585 5.41561Z" fill="#A8FFE0"/>
<path d="M8.45804 22.2799C8.83082 21.3509 9.18546 20.5337 9.48704 19.6967C9.68529 19.1472 9.96453 18.9886 10.5426 19.1515C11.7 19.4772 12.8742 19.7505 14.0526 19.9941C14.565 20.1003 14.7102 20.3708 14.639 20.8368C14.329 22.8549 14.0219 24.873 13.7021 26.8883C13.5681 27.7295 13.2568 27.9632 12.3799 27.9915C9.45353 28.085 6.64718 27.4038 3.8506 26.6546C3.45269 26.5484 3.21115 26.2623 3.11202 25.8813C2.6792 24.2244 2.87746 22.7189 4.15497 21.467C5.36547 20.2816 6.83148 20.3284 7.92609 21.6115C8.08805 21.8026 8.23884 22.0023 8.45944 22.2785L8.45804 22.2799Z" fill="#582E61"/>
<path d="M18.8585 22.1624C18.7831 21.7106 18.7272 21.3452 18.6602 20.9827C18.5164 20.2023 18.6267 19.9474 19.3723 19.8369C20.4934 19.6698 21.6131 19.4602 22.7552 19.4432C23.29 19.4361 23.5078 19.6387 23.6195 20.1981C23.9588 21.8961 24.3818 23.5757 24.7727 25.2639C24.7881 25.3318 24.8174 25.3984 24.83 25.4678C25.1022 26.9421 24.9947 27.1432 23.5273 27.3556C21.2836 27.6814 19.0302 27.9334 16.76 27.9802C15.576 28.0042 15.3233 27.8116 15.0231 26.6234C14.8514 25.9422 14.7215 25.2625 14.8807 24.543C15.3847 22.2799 16.6008 21.5137 18.8557 22.1638L18.8585 22.1624Z" fill="#582E61"/>
<path d="M6.40985 4.02347C7.00044 4.38885 7.71948 4.43276 8.26818 4.93976C8.78058 5.41278 9.1059 5.93394 8.98862 6.65055C8.8127 7.73112 8.36731 8.48313 7.59661 8.7338C6.55784 9.07086 1.70049 8.2098 1.25929 7.87133C-0.300255 6.91113 -0.434289 4.89444 0.982846 3.68216C1.32771 3.38759 1.72562 3.33236 2.15844 3.35502C3.59652 3.43149 5.00249 3.72465 6.40845 4.02205L6.40985 4.02347Z" fill="#C6868B"/>
<path d="M26.7637 8.29902C26.1564 8.32735 26.067 7.67589 25.6621 7.43796C26.4817 6.87998 27.3026 6.3234 28.1222 5.76541C28.354 5.60821 28.5815 5.43402 28.8831 5.46659C29.1945 5.50058 29.3858 5.69035 29.4765 5.98351C29.5812 6.3234 29.4514 6.59673 29.1749 6.77659C28.3777 7.29351 27.5693 7.79343 26.7651 8.29902H26.7637Z" fill="#582E61"/>
<path d="M27.343 9.96874C26.9674 9.62885 26.8669 9.16716 26.7915 8.69415C27.4854 8.53128 28.1835 8.38683 28.8704 8.19706C29.3773 8.05685 29.8254 8.06252 29.9706 8.65874C30.113 9.23939 29.6649 9.43341 29.2223 9.54671C28.5996 9.70533 27.9685 9.82995 27.3416 9.96874H27.343Z" fill="#582E61"/>
<path d="M22.758 9.85828C22.7342 11.3481 21.9551 12.1724 20.8787 12.7573C20.4961 12.9655 20.3007 13.1312 20.3244 13.6467C20.397 15.196 18.4926 16.4805 16.887 15.8956C15.4936 15.3872 14.297 14.5233 13.5752 13.1326C13.3923 12.7799 13.2625 12.4145 13.6604 12.1271C14.1225 11.7928 14.4534 12.1341 14.6321 12.4712C15.1068 13.3719 15.8929 13.8931 16.6943 14.4185C17.1327 14.706 17.6032 14.7711 18.0961 14.6408C18.9799 14.4057 19.1991 13.8817 18.7662 13.0717C18.4619 12.5024 18.5959 12.1582 19.2423 11.9727C19.8483 11.7985 20.4333 11.6229 20.915 11.1626C21.8462 10.2704 21.6131 8.96181 20.4054 8.51004C19.4043 8.13474 18.4465 8.22396 17.5613 8.86126C17.2737 9.06803 16.9652 9.07086 16.7418 8.82161C16.5058 8.55536 16.5952 8.22396 16.8353 7.99737C17.8922 7.00177 19.1711 6.92388 20.4905 7.19437C21.5991 7.42239 22.3628 8.0965 22.656 9.24222C22.7189 9.49006 22.7412 9.74923 22.7594 9.86111L22.758 9.85828Z" fill="#5A739C"/>
<path d="M12.7585 5.41561C12.6663 4.00506 11.9808 2.65399 10.1797 2.74179C9.83624 2.75879 9.49697 2.70214 9.42436 2.28719C9.34757 1.84816 9.705 1.71787 10.0136 1.62865C10.9616 1.35815 11.8398 1.63998 12.5756 2.20505C13.6004 2.99105 14.036 4.1311 14.0653 5.41844C14.0765 5.89429 13.9159 6.32907 13.3602 6.39138C12.9442 6.4367 12.7557 6.10531 12.7599 5.41702L12.7585 5.41561Z" fill="#5A739C"/>
<path d="M10.3402 5.15503C10.2969 5.15786 10.2369 5.14369 10.2117 5.16635C9.93389 5.41986 9.66442 5.71018 9.25534 5.42127C9.02078 5.25558 8.95655 5.01057 9.05708 4.74007C9.21066 4.32371 9.47733 3.99656 9.92551 3.92433C10.417 3.84503 10.6138 4.26847 10.4658 5.02898L10.4798 5.0134C10.3262 4.961 10.3109 5.04881 10.3276 5.16777L10.3402 5.15361V5.15503Z" fill="#582E61"/>
<path d="M10.4673 5.0304C10.6153 4.92277 10.7549 4.79531 10.9155 4.71033C11.2003 4.55738 11.4739 4.63244 11.654 4.8817C11.876 5.1876 11.7881 5.49775 11.5773 5.78807C11.3245 6.13788 10.9922 6.39421 10.5804 6.21719C10.3151 6.10247 10.2104 5.76825 10.3095 5.43544C10.336 5.34763 10.3318 5.24991 10.3416 5.15644L10.3291 5.1706C10.3793 5.11962 10.431 5.06722 10.4812 5.01624L10.4673 5.03181V5.0304Z" fill="#582E61"/>
<path d="M10.4811 5.01482C10.4308 5.0658 10.3792 5.1182 10.3289 5.16919C10.3136 5.05022 10.3289 4.96242 10.4811 5.01482Z" fill="#A8FFE0"/>
</g>
<defs>
<clipPath id="clip0_241_3377">
<rect width="30" height="28" fill="white"/>
</clipPath>
</defs>
</svg>
