<svg width="149" height="163" viewBox="0 0 149 163" fill="none" xmlns="http://www.w3.org/2000/svg">
<path d="M16.5652 137.57H51.6126C51.6126 136.224 51.5935 134.944 51.6126 133.664C51.6317 132.47 52.329 131.896 53.4753 131.877C56.0162 131.849 58.5666 131.81 61.1075 131.877C63.104 131.925 63.7153 132.661 63.7153 134.733C63.7153 142.91 63.7153 151.087 63.7153 159.273C63.7153 162.11 63.0849 162.75 60.1714 162.75C48.852 162.75 37.5325 162.731 26.213 162.722C19.9849 162.722 13.7568 162.722 7.52875 162.703C5.08337 162.703 4.31918 161.957 4.31918 159.522C4.30008 151.23 4.29053 142.948 4.29053 134.657C4.29053 132.03 4.94008 131.381 7.5192 131.361C9.89772 131.352 12.2858 131.409 14.6643 131.361C15.9921 131.333 16.5461 131.954 16.5461 133.205C16.5461 134.6 16.5461 136.004 16.5461 137.57H16.5652ZM16.6607 152.405H51.4597V147.447H16.6607V152.405Z" fill="white"/>
<path d="M11.9705 97.4126H28.6201C28.6201 95.7983 28.6679 94.1362 28.6106 92.4932C28.5533 90.9648 29.1646 90.3439 30.7216 90.3917C33.2625 90.4777 35.813 90.4108 38.3635 90.4204C40.1975 90.4204 40.6751 90.8502 40.6751 92.7034C40.6847 100.508 40.656 108.302 40.6465 116.106C40.6465 118.867 40.656 121.637 40.6465 124.398C40.6369 126.155 39.9778 126.843 38.182 126.834C26.213 126.748 14.2344 126.643 2.26537 126.528C0.698795 126.509 0.0205823 125.821 0.01103 124.226C-0.00807454 113.661 0.00147774 103.096 0.01103 92.5314C0.01103 91.0699 0.75611 90.3917 2.23672 90.4108C4.72986 90.449 7.22301 90.4108 9.71616 90.4299C11.3305 90.4299 11.9227 91.0031 11.9705 92.6747C12.0183 94.184 11.9705 95.6932 11.9705 97.4222V97.4126ZM11.8845 115.935H28.601V108.407H11.8845V115.935Z" fill="white"/>
<path d="M126.837 146.674C125.996 146.674 125.356 146.674 124.716 146.674C111.056 146.674 97.4061 146.674 83.7463 146.674C81.3678 146.674 81.2914 146.588 81.2818 144.171C81.2818 142.108 81.2627 140.054 81.2532 137.991C81.2532 135.364 81.32 135.306 83.8705 135.297C100.616 135.259 117.361 135.278 134.106 135.144C139.732 135.096 138.853 135.392 138.863 139.834C138.882 146.769 138.863 153.704 138.863 160.649C138.863 162.769 138.682 162.941 136.532 162.951C134.144 162.96 131.766 162.979 129.378 162.998C126.999 163.018 126.846 162.865 126.837 160.553C126.837 156.006 126.837 151.459 126.837 146.683V146.674Z" fill="white"/>
<path d="M118.661 101.704C118.568 103.687 118.511 105.362 118.41 107.038C118.353 108.034 118.604 108.743 119.343 109.03C121.231 109.777 123.097 110.649 125.02 111.204C126.772 111.712 126.958 111.798 126.958 114.201C126.958 116.701 126.958 119.2 126.958 121.69C126.958 123.624 126.355 124.371 124.97 123.759C122.027 122.456 119.128 120.962 116.207 119.545C116.056 119.468 115.905 119.411 115.862 119.392C114.506 122.016 113.207 124.592 111.85 127.12C111.262 128.221 110.565 129.217 109.891 130.232C109.209 131.266 108.369 131.439 107.479 130.759C105.972 129.6 104.458 128.432 102.986 127.187C101.938 126.306 101.831 124.812 102.735 123.433C104.903 120.1 106.675 116.442 108.01 112.411C109.151 108.973 109.819 105.41 109.697 101.446C108.061 101.446 106.482 101.446 104.91 101.446C103.438 101.446 102.972 100.909 102.929 99.0229C102.886 97.0693 102.914 95.1158 102.943 93.1622C102.965 91.6874 103.568 91.0267 104.658 91.0458C110.967 91.1128 117.269 91.1607 123.578 91.2469C124.891 91.2661 125.229 91.764 125.236 93.5069C125.25 95.403 125.243 97.3087 125.236 99.2048C125.229 101.063 124.819 101.656 123.441 101.704C121.862 101.752 120.283 101.714 118.647 101.714L118.661 101.704Z" fill="white"/>
<path d="M93.7546 101.452C93.6262 103.684 93.4622 105.62 93.4337 107.565C93.4266 108.102 93.719 108.772 94.0256 109.175C96.1151 111.973 98.2545 114.704 100.365 117.482C101.435 118.881 101.414 119.351 100.422 120.855C99.5667 122.158 98.7608 123.51 97.9193 124.832C96.9994 126.269 96.3005 126.317 95.2879 125.033C93.7903 123.136 92.2855 121.248 90.7452 119.303C89.6683 121.421 88.6485 123.529 87.5503 125.56C86.7159 127.093 85.796 128.53 84.8689 129.968C83.9133 131.443 82.8151 131.558 81.7026 130.294C80.4689 128.895 79.2779 127.429 78.0727 125.972C77.0458 124.726 77.0244 123.586 78.0085 122.264C81.1107 118.076 83.3856 113.228 84.5052 107.488C84.876 105.581 84.9902 103.579 85.2469 101.413C83.4284 101.413 81.8167 101.423 80.2121 101.413C78.8857 101.404 78.4221 100.848 78.3865 99.1424C78.3508 97.2451 78.3437 95.3383 78.4008 93.441C78.4507 91.6588 78.9784 91.0359 80.312 91.0455C86.2524 91.0838 92.2 91.1222 98.1404 91.1892C100.123 91.2084 100.43 91.6684 100.444 94.3705C100.451 95.9994 100.465 97.6284 100.43 99.2573C100.401 100.666 99.8876 101.471 98.7751 101.461C97.1278 101.442 95.4733 101.461 93.7618 101.461L93.7546 101.452Z" fill="white"/>
<path d="M63.2758 100.613C65.5779 100.613 67.6316 100.651 69.6758 100.603C71.1851 100.574 71.8728 101.243 71.8633 102.743C71.8442 105.073 71.8633 107.404 71.8633 109.735C71.8633 111.206 71.0896 111.884 69.6185 111.865C67.5648 111.846 65.5206 111.865 63.3617 111.865C63.3426 112.4 63.2949 112.878 63.2949 113.346C63.2949 117.788 63.3331 122.229 63.3235 126.671C63.3235 128.983 62.9414 129.336 60.7062 129.346C58.3181 129.346 55.9396 129.308 53.5515 129.365C52.176 129.403 51.5647 128.725 51.4118 127.474C51.3545 127.044 51.3832 126.604 51.3832 126.174C51.3354 114.416 51.2877 102.657 51.2399 90.8978C51.2303 87.9557 51.3736 87.8124 54.3444 87.8124C56.6178 87.8124 58.9008 87.8698 61.1743 87.7933C62.674 87.7456 63.2185 88.4333 63.2089 89.828C63.2089 92.9134 63.2471 96.0083 63.2662 99.0937C63.2662 99.5713 63.2662 100.049 63.2662 100.613H63.2758Z" fill="white"/>
<rect x="132.692" y="105.255" width="16.2389" height="9.55229" rx="4" fill="white"/>
<rect x="143.2" y="107.166" width="19.1046" height="10.5075" rx="4" transform="rotate(90 143.2 107.166)" fill="white"/>
<path d="M73.3266 45.6593C73.3266 41.7363 73.5337 38.0857 73.2177 34.4679C73.0978 33.1275 72.0299 31.6346 70.9837 30.632C67.9652 27.7661 66.5813 24.3879 66.6358 20.2579C66.712 14.5151 66.6467 8.76135 66.6575 3.00763C66.6575 0.904468 67.4421 0.0108972 69.2511 0C71.06 0 71.91 0.871776 71.9209 2.97494C71.9427 8.22739 71.9209 13.4798 71.91 18.7323C71.91 19.1028 71.7574 19.5714 71.9209 19.822C72.3895 20.5194 72.9888 21.1297 73.5337 21.7726C74.0458 21.1079 74.9721 20.4541 75.0048 19.7675C75.1465 16.008 75.0811 12.2267 75.0811 8.45623C75.0811 6.66909 75.0484 4.87105 75.0811 3.08391C75.1247 0.893571 76.0073 -0.0435888 77.8817 0.0108972C79.6688 0.0653832 80.4752 0.969851 80.4752 3.08391C80.4752 8.33636 80.4861 13.5888 80.4425 18.8413C80.4316 20.1489 80.4425 21.6636 82.0117 21.6745C83.7226 21.6963 83.7008 20.1053 83.7008 18.7541C83.6899 13.5016 83.7117 8.24918 83.7335 2.99673C83.7335 1.02434 84.6488 0.0217944 86.4033 0.0108972C88.1686 0 89.084 0.948057 89.0731 2.99673C89.0513 9.42608 89.0949 15.8554 88.8551 22.2739C88.7462 25.3251 87.7654 28.2456 85.1828 30.2397C83.145 31.8198 82.3713 33.7377 82.5566 36.3313C82.7636 39.3389 82.6111 42.3683 82.6111 45.6484C86.0764 45.6484 89.4545 45.6484 92.8217 45.6484C95.3717 45.6484 95.6659 45.9644 95.6223 48.5579C95.339 63.0621 88.5827 73.8722 76.6394 81.6528C74.9067 82.7752 73.7516 83.8322 74.0459 86.1424C74.2638 87.8642 73.2286 88.7141 71.4414 88.7141C62.048 88.7141 52.6546 88.6924 43.2504 88.6706C41.3869 88.6706 40.2209 87.6898 40.428 85.8482C40.6677 83.7123 39.7197 82.7207 38.0415 81.6745C27.809 75.2452 21.6085 65.9826 19.331 54.1264C18.9714 52.263 18.8951 50.3342 18.8188 48.4272C18.7425 46.3785 19.3419 45.7901 21.4124 45.7683C25.6732 45.7247 29.9449 45.7029 34.2057 45.692C46.5086 45.6702 58.8116 45.6593 71.1036 45.6484C71.7683 45.6484 72.444 45.6484 73.3157 45.6484L73.3266 45.6593Z" fill="white"/>
</svg>
