<svg width="149" height="163" viewBox="0 0 149 163" fill="none" xmlns="http://www.w3.org/2000/svg">
<path d="M16.5651 137.57H51.6124C51.6124 136.224 51.5933 134.944 51.6124 133.664C51.6315 132.47 52.3289 131.896 53.4751 131.877C56.0161 131.849 58.5665 131.81 61.1074 131.877C63.1038 131.925 63.7152 132.661 63.7152 134.733C63.7152 142.91 63.7152 151.087 63.7152 159.273C63.7152 162.11 63.0847 162.75 60.1713 162.75C48.8518 162.75 37.5324 162.731 26.2129 162.722C19.9848 162.722 13.7567 162.722 7.52863 162.703C5.08324 162.703 4.31906 161.957 4.31906 159.522C4.29996 151.23 4.29041 142.948 4.29041 134.657C4.29041 132.03 4.93996 131.381 7.51908 131.361C9.8976 131.352 12.2857 131.409 14.6642 131.361C15.992 131.333 16.546 131.954 16.546 133.205C16.546 134.6 16.546 136.004 16.546 137.57H16.5651ZM16.6606 152.405H51.4596V147.447H16.6606V152.405Z" fill="#FEB92E"/>
<path d="M11.9705 97.4126H28.6201C28.6201 95.7983 28.6679 94.1362 28.6106 92.4932C28.5533 90.9648 29.1646 90.3439 30.7216 90.3917C33.2625 90.4777 35.813 90.4108 38.3635 90.4204C40.1975 90.4204 40.6751 90.8502 40.6751 92.7034C40.6847 100.508 40.656 108.302 40.6465 116.106C40.6465 118.867 40.656 121.637 40.6465 124.398C40.6369 126.155 39.9778 126.843 38.182 126.834C26.213 126.748 14.2344 126.643 2.26537 126.528C0.698795 126.509 0.0205823 125.821 0.01103 124.226C-0.00807454 113.661 0.00147774 103.096 0.01103 92.5314C0.01103 91.0699 0.75611 90.3917 2.23672 90.4108C4.72986 90.449 7.22301 90.4108 9.71616 90.4299C11.3305 90.4299 11.9227 91.0031 11.9705 92.6747C12.0183 94.184 11.9705 95.6932 11.9705 97.4222V97.4126ZM11.8845 115.935H28.601V108.407H11.8845V115.935Z" fill="#FEB92E"/>
<path d="M126.837 146.674C125.996 146.674 125.356 146.674 124.716 146.674C111.056 146.674 97.4061 146.674 83.7463 146.674C81.3678 146.674 81.2914 146.588 81.2818 144.171C81.2818 142.108 81.2627 140.054 81.2532 137.991C81.2532 135.364 81.32 135.306 83.8705 135.297C100.616 135.259 117.361 135.278 134.106 135.144C139.732 135.096 138.853 135.392 138.863 139.834C138.882 146.769 138.863 153.704 138.863 160.649C138.863 162.769 138.682 162.941 136.532 162.951C134.144 162.96 131.766 162.979 129.378 162.998C126.999 163.018 126.846 162.865 126.837 160.553C126.837 156.006 126.837 151.459 126.837 146.683V146.674Z" fill="#FEB92E"/>
<path d="M118.661 101.704C118.568 103.687 118.511 105.362 118.41 107.038C118.353 108.034 118.604 108.743 119.343 109.03C121.231 109.777 123.097 110.649 125.02 111.204C126.772 111.712 126.958 111.798 126.958 114.201C126.958 116.701 126.958 119.2 126.958 121.69C126.958 123.624 126.355 124.371 124.97 123.759C122.027 122.456 119.128 120.962 116.207 119.545C116.056 119.468 115.905 119.411 115.862 119.392C114.506 122.016 113.206 124.592 111.85 127.12C111.261 128.221 110.565 129.217 109.891 130.232C109.209 131.266 108.369 131.439 107.479 130.759C105.972 129.6 104.457 128.432 102.986 127.187C101.938 126.306 101.831 124.812 102.735 123.433C104.902 120.1 106.675 116.442 108.01 112.411C109.151 108.973 109.819 105.41 109.697 101.446C108.06 101.446 106.481 101.446 104.91 101.446C103.438 101.446 102.972 100.909 102.929 99.0229C102.886 97.0693 102.914 95.1158 102.943 93.1622C102.965 91.6874 103.567 91.0267 104.658 91.0458C110.967 91.1128 117.269 91.1607 123.578 91.2469C124.891 91.2661 125.228 91.764 125.236 93.5069C125.25 95.403 125.243 97.3087 125.236 99.2048C125.228 101.063 124.819 101.656 123.441 101.704C121.862 101.752 120.283 101.714 118.647 101.714L118.661 101.704Z" fill="#FEB92E"/>
<path d="M93.7547 101.452C93.6264 103.684 93.4624 105.62 93.4338 107.565C93.4267 108.102 93.7191 108.772 94.0257 109.175C96.1152 111.973 98.2546 114.704 100.366 117.482C101.435 118.881 101.414 119.351 100.423 120.855C99.5668 122.158 98.761 123.51 97.9195 124.832C96.9995 126.269 96.3006 126.317 95.288 125.033C93.7904 123.136 92.2857 121.248 90.7453 119.303C89.6685 121.421 88.6487 123.529 87.5504 125.56C86.7161 127.093 85.7961 128.53 84.869 129.968C83.9134 131.443 82.8152 131.558 81.7027 130.294C80.469 128.895 79.278 127.429 78.0728 125.972C77.0459 124.726 77.0245 123.586 78.0086 122.264C81.1108 118.076 83.3857 113.228 84.5053 107.488C84.8762 105.581 84.9903 103.579 85.247 101.413C83.4285 101.413 81.8168 101.423 80.2122 101.413C78.8858 101.404 78.4223 100.848 78.3866 99.1424C78.3509 97.2451 78.3438 95.3383 78.4009 93.441C78.4508 91.6588 78.9785 91.0359 80.3121 91.0455C86.2525 91.0838 92.2001 91.1222 98.1405 91.1892C100.123 91.2084 100.43 91.6684 100.444 94.3705C100.451 95.9994 100.465 97.6284 100.43 99.2573C100.401 100.666 99.8877 101.471 98.7752 101.461C97.1279 101.442 95.4734 101.461 93.7619 101.461L93.7547 101.452Z" fill="#FEB92E"/>
<path d="M63.2759 100.613C65.578 100.613 67.6317 100.651 69.6759 100.603C71.1852 100.574 71.873 101.243 71.8634 102.743C71.8443 105.073 71.8634 107.404 71.8634 109.735C71.8634 111.206 71.0897 111.884 69.6186 111.865C67.5649 111.846 65.5207 111.865 63.3619 111.865C63.3428 112.4 63.295 112.878 63.295 113.346C63.295 117.788 63.3332 122.229 63.3237 126.671C63.3237 128.983 62.9416 129.336 60.7063 129.346C58.3183 129.346 55.9397 129.308 53.5517 129.365C52.1761 129.403 51.5648 128.725 51.412 127.474C51.3546 127.044 51.3833 126.604 51.3833 126.174C51.3355 114.416 51.2878 102.657 51.24 90.8978C51.2305 87.9557 51.3737 87.8124 54.3445 87.8124C56.618 87.8124 58.901 87.8698 61.1744 87.7933C62.6741 87.7456 63.2186 88.4333 63.209 89.828C63.209 92.9134 63.2473 96.0083 63.2664 99.0937C63.2664 99.5713 63.2664 100.049 63.2664 100.613H63.2759Z" fill="#FEB92E"/>
<rect x="132.692" y="105.255" width="16.2389" height="9.55229" rx="4" fill="#FEB92E"/>
<rect x="143.2" y="107.166" width="19.1046" height="10.5075" rx="4" transform="rotate(90 143.2 107.166)" fill="#FEB92E"/>
<path d="M73.3266 45.6593C73.3266 41.7363 73.5337 38.0857 73.2177 34.4679C73.0978 33.1275 72.0299 31.6346 70.9837 30.632C67.9652 27.7661 66.5813 24.3879 66.6358 20.2579C66.712 14.5151 66.6467 8.76135 66.6575 3.00763C66.6575 0.904468 67.4421 0.0108972 69.2511 0C71.06 0 71.91 0.871776 71.9209 2.97494C71.9427 8.22739 71.9209 13.4798 71.91 18.7323C71.91 19.1028 71.7574 19.5714 71.9209 19.822C72.3895 20.5194 72.9888 21.1297 73.5337 21.7726C74.0458 21.1079 74.9721 20.4541 75.0048 19.7675C75.1465 16.008 75.0811 12.2267 75.0811 8.45623C75.0811 6.66909 75.0484 4.87105 75.0811 3.08391C75.1247 0.893571 76.0073 -0.0435888 77.8817 0.0108972C79.6688 0.0653832 80.4752 0.969851 80.4752 3.08391C80.4752 8.33636 80.4861 13.5888 80.4425 18.8413C80.4316 20.1489 80.4425 21.6636 82.0117 21.6745C83.7226 21.6963 83.7008 20.1053 83.7008 18.7541C83.6899 13.5016 83.7117 8.24918 83.7335 2.99673C83.7335 1.02434 84.6488 0.0217944 86.4033 0.0108972C88.1686 0 89.084 0.948057 89.0731 2.99673C89.0513 9.42608 89.0949 15.8554 88.8551 22.2739C88.7462 25.3251 87.7654 28.2456 85.1828 30.2397C83.145 31.8198 82.3713 33.7377 82.5566 36.3313C82.7636 39.3389 82.6111 42.3683 82.6111 45.6484C86.0764 45.6484 89.4545 45.6484 92.8217 45.6484C95.3717 45.6484 95.6659 45.9644 95.6223 48.5579C95.339 63.0621 88.5827 73.8722 76.6394 81.6528C74.9067 82.7752 73.7516 83.8322 74.0459 86.1424C74.2638 87.8642 73.2286 88.7141 71.4414 88.7141C62.048 88.7141 52.6546 88.6924 43.2504 88.6706C41.3869 88.6706 40.2209 87.6898 40.428 85.8482C40.6677 83.7123 39.7197 82.7207 38.0415 81.6745C27.809 75.2452 21.6085 65.9826 19.331 54.1264C18.9714 52.263 18.8951 50.3342 18.8188 48.4272C18.7425 46.3785 19.3419 45.7901 21.4124 45.7683C25.6732 45.7247 29.9449 45.7029 34.2057 45.692C46.5086 45.6702 58.8116 45.6593 71.1036 45.6484C71.7683 45.6484 72.444 45.6484 73.3157 45.6484L73.3266 45.6593Z" fill="#FEB92E"/>
</svg>
