<svg width="28" height="27" viewBox="0 0 28 27" fill="none" xmlns="http://www.w3.org/2000/svg">
<path d="M22.75 21.9375H5.25C4.78587 21.9375 4.34075 21.7597 4.01256 21.4432C3.68437 21.1268 3.5 20.6976 3.5 20.25V8.4375C3.5 7.98995 3.68437 7.56073 4.01256 7.24426C4.34075 6.92779 4.78587 6.75 5.25 6.75H8.75L10.5 4.21875H17.5L19.25 6.75H22.75C23.2141 6.75 23.6592 6.92779 23.9874 7.24426C24.3156 7.56073 24.5 7.98995 24.5 8.4375V20.25C24.5 20.6976 24.3156 21.1268 23.9874 21.4432C23.6592 21.7597 23.2141 21.9375 22.75 21.9375Z" stroke="#F8B621" stroke-width="2" stroke-linecap="round" stroke-linejoin="round"/>
<path d="M14 17.7188C16.1746 17.7188 17.9375 16.0188 17.9375 13.9219C17.9375 11.8249 16.1746 10.125 14 10.125C11.8254 10.125 10.0625 11.8249 10.0625 13.9219C10.0625 16.0188 11.8254 17.7188 14 17.7188Z" stroke="#F8B621" stroke-width="2" stroke-linecap="round" stroke-linejoin="round"/>
</svg>
