<svg width="38" height="39" viewBox="0 0 38 39" fill="none" xmlns="http://www.w3.org/2000/svg">
<path fill-rule="evenodd" clip-rule="evenodd" d="M7.66016 35.0149C7.93695 35.0644 8.21746 35.1032 8.50044 35.1308C8.84437 35.1644 9.19309 35.1815 9.54532 35.1815C11.6179 35.1815 13.5548 34.5876 15.1915 33.5606C16.4107 33.8475 17.6869 33.9997 18.9999 33.9997C27.3861 33.9997 34.3635 27.745 34.3635 19.8179C34.3635 11.8908 27.3861 5.63608 18.9999 5.63608C10.6137 5.63608 3.63623 11.8908 3.63623 19.8179C3.63623 23.6132 5.25075 27.0461 7.84935 29.5755C8.21493 29.9314 8.28641 30.2488 8.25039 30.4304C8.05236 31.4288 7.60221 32.3375 6.9667 33.0876C6.69346 33.4101 6.61326 33.8539 6.75636 34.2517C6.89947 34.6494 7.24409 34.9404 7.66016 35.0149ZM13.0908 18.0452C12.1117 18.0452 11.318 18.8388 11.318 19.8179C11.318 20.7969 12.1117 21.5906 13.0908 21.5906C14.0698 21.5906 14.8635 20.7969 14.8635 19.8179C14.8635 18.8388 14.0698 18.0452 13.0908 18.0452ZM17.2271 19.8179C17.2271 18.8388 18.0208 18.0452 18.9999 18.0452C19.9789 18.0452 20.7726 18.8388 20.7726 19.8179C20.7726 20.7969 19.9789 21.5906 18.9999 21.5906C18.0208 21.5906 17.2271 20.7969 17.2271 19.8179ZM24.909 18.0452C23.9299 18.0452 23.1362 18.8388 23.1362 19.8179C23.1362 20.7969 23.9299 21.5906 24.909 21.5906C25.888 21.5906 26.6817 20.7969 26.6817 19.8179C26.6817 18.8388 25.888 18.0452 24.909 18.0452Z" fill="#F8B621"/>
</svg>
