<svg width="109" height="101" viewBox="0 0 109 101" fill="none" xmlns="http://www.w3.org/2000/svg">
<g clip-path="url(#clip0_363_1827)">
<path d="M22.7974 14.5236C25.0396 8.82759 29.5848 5.27719 34.5816 2.43176C40.7856 -1.09821 47.2281 -0.62823 53.3764 2.83022C56.3592 4.51091 59.3624 6.17628 61.427 9.22094C63.2583 11.9182 64.1765 14.8863 64.6787 17.9565C65.0033 19.9386 65.2113 20.6129 67.5601 20.3217C76.8941 19.1621 85.3809 21.8491 93.2387 26.8299C94.7099 27.6881 95.0345 30.0432 97.2412 29.9359C97.2767 30.411 97.3122 30.8861 97.3477 31.3611C97.6217 33.0674 97.9818 34.7379 99.3515 35.9588C99.9653 38.0737 100.625 40.1784 101.188 42.3086C103.775 52.0812 98.8899 61.9814 87.6079 63.4987C81.4799 64.3211 75.4128 65.7106 69.2442 66.3799C58.8754 67.5037 48.5065 67.7847 38.3811 64.9393C32.6133 63.3199 26.9571 61.3173 22.2495 57.0824C17.897 53.1744 15.7005 48.6432 15.878 42.8553C15.9998 38.8706 16.1469 34.8809 16.2788 30.8963C16.5933 30.4978 16.9737 30.646 17.3999 30.6664C20.6313 30.8299 23.8373 31.8975 27.1143 30.7941C30.5842 29.6191 31.7205 26.8503 32.172 23.6013C32.5169 21.1135 31.4161 19.3255 29.5544 17.6908C27.5557 15.9386 24.9482 15.7854 22.8024 14.5287L22.7974 14.5236ZM38.0311 18.1455C38.5688 15.4022 37.8485 13.8748 36.0679 14.1609C34.4395 14.4214 33.4706 15.6014 32.9126 17.1033C32.5473 18.0791 32.7807 18.9577 33.6329 19.5605C35.1193 20.6027 36.0983 19.5605 37.1078 18.641C37.1991 18.5593 37.4173 18.6103 37.5745 18.6001C37.539 18.9373 37.5542 19.2898 37.4579 19.6065C37.0977 20.807 37.4781 22.0177 38.442 22.4264C39.9385 23.065 41.1509 22.1403 42.064 20.8785C42.83 19.8313 43.1496 18.7125 42.343 17.6091C41.6835 16.71 40.6943 16.4392 39.6595 16.991C39.0761 17.3026 38.5739 17.7572 38.0311 18.1455ZM82.6872 35.5603C82.6213 35.1619 82.5452 34.227 82.3119 33.3279C81.2466 29.1951 78.4717 26.7635 74.4439 25.941C69.6551 24.9653 65.0084 25.2463 61.1632 28.8375C60.2856 29.6549 59.961 30.8503 60.8233 31.8107C61.6299 32.7149 62.751 32.7047 63.8011 31.9537C67.0122 29.6549 70.4972 29.3382 74.1345 30.6868C78.5225 32.3164 79.3696 37.0316 75.986 40.255C74.241 41.9153 72.1155 42.5539 69.9088 43.1771C67.5601 43.8463 67.0731 45.0826 68.1789 47.1413C69.7515 50.0633 68.9602 51.9535 65.744 52.8015C63.9533 53.2766 62.2437 53.0416 60.6509 51.9995C57.7441 50.1042 54.883 48.2243 53.1583 44.9753C52.514 43.7595 51.3067 42.5283 49.6276 43.7339C48.1818 44.7709 48.6536 46.0889 49.3181 47.3609C51.9408 52.3775 56.2882 55.4937 61.3509 57.3276C67.1847 59.4374 74.104 54.8091 73.8402 49.2153C73.754 47.3609 74.4642 46.7581 75.8541 46.0072C79.7704 43.8974 82.5959 40.9242 82.6822 35.5501L82.6872 35.5603ZM46.3556 19.535C46.3404 22.0177 47.0252 23.2182 48.5369 23.0496C50.5559 22.83 51.1393 21.2565 51.0987 19.5401C50.9922 14.8965 49.4095 10.7841 45.686 7.94893C43.0075 5.91064 39.8218 4.88894 36.3773 5.86977C35.2562 6.1865 33.9576 6.65648 34.2366 8.24522C34.5004 9.74201 35.7331 9.94635 36.981 9.88505C43.525 9.57343 46.0157 14.4469 46.3505 19.5299L46.3556 19.535Z" fill="white"/>
<path d="M30.7313 80.3668C32.0857 77.0156 33.3742 74.068 34.4699 71.0489C35.1903 69.0668 36.2049 68.4946 38.305 69.0821C42.5104 70.2571 46.7766 71.243 51.0581 72.1216C52.9198 72.5048 53.4474 73.4805 53.1887 75.1612C52.0625 82.4408 50.9465 89.7204 49.7848 96.9898C49.2978 100.024 48.1666 100.867 44.9809 100.969C34.3482 101.306 24.1518 98.8493 13.9909 96.1469C12.5452 95.7638 11.6676 94.7318 11.3074 93.3577C9.73481 87.3807 10.4552 81.9504 15.0968 77.4345C19.4949 73.1587 24.8214 73.3273 28.7985 77.9556C29.387 78.6452 29.9348 79.3655 30.7363 80.3616L30.7313 80.3668Z" fill="#582E61"/>
<path d="M68.5187 79.9427C68.2448 78.3131 68.0419 76.9951 67.7984 75.6874C67.2759 72.8726 67.6766 71.9531 70.3855 71.5546C74.459 70.9518 78.5274 70.1957 82.677 70.1344C84.6199 70.1089 85.4113 70.8394 85.8171 72.8573C87.0498 78.9823 88.5868 85.041 90.0072 91.1303C90.063 91.3755 90.1696 91.6156 90.2152 91.866C91.2044 97.1839 90.8138 97.9093 85.4823 98.6756C77.3302 99.8505 69.1427 100.76 60.8942 100.928C56.5925 101.015 55.6743 100.321 54.5836 96.0345C53.9597 93.5773 53.4879 91.1252 54.0662 88.5301C55.8975 80.3667 60.3159 77.6031 68.5086 79.9479L68.5187 79.9427Z" fill="#582E61"/>
<path d="M23.2894 14.5133C25.4352 15.8312 28.0477 15.9896 30.0414 17.8185C31.9031 19.5247 33.0851 21.4046 32.6589 23.9895C32.0198 27.8873 30.4015 30.5999 27.6013 31.5041C23.8271 32.7199 6.17876 29.614 4.57574 28.393C-1.09062 24.9295 -1.57761 17.655 3.57132 13.2821C4.82431 12.2195 6.27007 12.0203 7.84264 12.102C13.0677 12.3779 18.176 13.4354 23.2844 14.5081L23.2894 14.5133Z" fill="#C6868B"/>
<path d="M97.2412 29.9359C95.0346 30.038 94.7099 27.6881 93.2388 26.8299C96.2165 24.8172 99.1993 22.8095 102.177 20.7968C103.019 20.2297 103.846 19.6014 104.942 19.7189C106.073 19.8415 106.768 20.526 107.098 21.5835C107.478 22.8095 107.006 23.7955 106.002 24.4442C103.105 26.3088 100.168 28.1121 97.2463 29.9359H97.2412Z" fill="#582E61"/>
<path d="M99.3464 35.9587C97.9818 34.7326 97.6166 33.0673 97.3427 31.361C99.8639 30.7736 102.4 30.2525 104.896 29.568C106.738 29.0622 108.366 29.0826 108.893 31.2333C109.411 33.3278 107.783 34.0277 106.174 34.4363C103.912 35.0085 101.619 35.458 99.3413 35.9587H99.3464Z" fill="#582E61"/>
<path d="M82.6873 35.5603C82.601 40.9344 79.7704 43.9076 75.8592 46.0174C74.4693 46.7683 73.7591 47.366 73.8453 49.2255C74.1091 54.8142 67.1897 59.4476 61.356 57.3378C56.2933 55.5038 51.9459 52.3877 49.3232 47.3711C48.6587 46.0991 48.1869 44.7811 49.6327 43.7441C51.3118 42.5385 52.514 43.7696 53.1634 44.9855C54.8881 48.2345 57.7441 50.1144 60.6559 52.0096C62.2488 53.0467 63.9584 53.2817 65.7491 52.8117C68.9602 51.9637 69.7566 50.0735 68.184 47.1515C67.0781 45.0979 67.5651 43.8565 69.9139 43.1873C72.1155 42.5589 74.241 41.9255 75.9911 40.2652C79.3747 37.0469 78.5275 32.3266 74.1395 30.697C70.5023 29.3433 67.0223 29.6651 63.8062 31.9639C62.7612 32.7098 61.6401 32.72 60.8284 31.8209C59.9711 30.8605 60.2958 29.6651 61.1683 28.8477C65.0084 25.2565 69.6551 24.9755 74.449 25.9512C78.4768 26.7737 81.2516 29.2053 82.3169 33.3381C82.5452 34.2321 82.6264 35.1669 82.6923 35.5705L82.6873 35.5603Z" fill="#5A739C"/>
<path d="M46.3556 19.5349C46.0208 14.4469 43.5301 9.57338 36.9861 9.8901C35.7382 9.9514 34.5055 9.74706 34.2417 8.25028C33.9627 6.66664 35.2613 6.19666 36.3824 5.87483C39.8269 4.8991 43.0177 5.91569 45.6911 7.95398C49.4145 10.7892 50.9973 14.9015 51.1038 19.5452C51.1444 21.2616 50.561 22.8299 48.542 23.0547C47.0303 23.2182 46.3455 22.0228 46.3607 19.54L46.3556 19.5349Z" fill="#5A739C"/>
<path d="M37.5695 18.595C37.4122 18.6052 37.1941 18.5541 37.1028 18.6359C36.0933 19.5503 35.1142 20.5975 33.6279 19.5554C32.7756 18.9577 32.5423 18.0739 32.9075 17.0982C33.4656 15.5963 34.4345 14.4163 36.0628 14.1557C37.8485 13.8697 38.5637 15.3971 38.026 18.1403L38.0768 18.0842C37.5187 17.8951 37.4629 18.2119 37.5238 18.641L37.5695 18.5899V18.595Z" fill="#582E61"/>
<path d="M38.031 18.1455C38.5688 17.7572 39.076 17.2974 39.6594 16.9909C40.6943 16.4392 41.6886 16.71 42.343 17.6091C43.1495 18.7125 42.8299 19.8313 42.0639 20.8785C41.1458 22.1403 39.9384 23.0649 38.4419 22.4264C37.4781 22.0126 37.0976 20.807 37.4578 19.6065C37.5542 19.2898 37.539 18.9373 37.5745 18.6001L37.5288 18.6512C37.7115 18.4673 37.8992 18.2783 38.0818 18.0944L38.031 18.1506V18.1455Z" fill="#582E61"/>
<path d="M38.0817 18.0891C37.8991 18.273 37.7114 18.462 37.5288 18.6459C37.473 18.2168 37.5288 17.9001 38.0817 18.0891Z" fill="white"/>
</g>
<defs>
<clipPath id="clip0_363_1827">
<rect width="109" height="101" fill="white"/>
</clipPath>
</defs>
</svg>
