<svg width="21" height="21" viewBox="0 0 21 21" fill="none" xmlns="http://www.w3.org/2000/svg">
<mask id="path-1-outside-1_489_490" maskUnits="userSpaceOnUse" x="0.107422" y="0.279907" width="21" height="20" fill="black">
<rect fill="white" x="0.107422" y="0.279907" width="21" height="20"/>
<path d="M18.7123 15.4002C19.5425 14.0776 20.0116 12.5493 20.0948 10.9958C20.1792 9.42037 19.8373 7.84079 19.1385 6.42635C18.4641 5.06063 17.4333 3.89288 16.195 3.00257C14.9273 2.09072 13.4367 1.54608 11.8887 1.34965C11.5199 1.30299 11.1481 1.28042 10.7762 1.27991C8.57234 1.28452 6.44762 2.06611 4.7584 3.46413C3.14676 4.79806 2.00734 6.71252 1.61839 8.75879C1.4172 9.81936 1.44512 10.8815 1.44512 11.9533V16.2064C1.44512 17.1716 1.4353 18.1373 1.44512 19.1019C1.44512 19.1173 1.44512 19.1327 1.44512 19.1481C1.44512 19.4917 1.73891 19.7835 2.08596 19.7835H9.49247C9.98279 19.7835 10.4736 19.7917 10.9639 19.7815C12.5383 19.7481 14.0983 19.3199 15.4601 18.5347C16.7805 17.7737 17.905 16.6849 18.7118 15.3997L18.7123 15.4002ZM14.5529 17.5824C14.3972 17.6649 14.2395 17.7429 14.0791 17.8162C14.0362 17.8357 13.9933 17.8552 13.9498 17.8737C13.9436 17.8762 13.9307 17.8819 13.9162 17.888C13.8929 17.8973 13.8546 17.9132 13.8412 17.9188C13.7915 17.9383 13.7419 17.9578 13.6922 17.9762C13.3576 18.1024 13.0147 18.208 12.6666 18.2916C12.4845 18.3357 12.3009 18.3737 12.1168 18.4055C12.033 18.4199 11.9487 18.4327 11.8644 18.4455C11.8122 18.4522 11.7594 18.4583 11.7072 18.4634C11.1082 18.5265 10.5052 18.5122 9.90417 18.5122H2.72833V12.4882C2.72833 11.6179 2.68696 10.7333 2.75368 9.8645C2.76299 9.74295 2.77488 9.6214 2.78936 9.50037C2.79143 9.48499 2.79299 9.46909 2.79506 9.4537C2.79506 9.4537 2.79506 9.4537 2.79506 9.45319C2.80592 9.38139 2.81677 9.31011 2.82919 9.23831C2.87212 8.9906 2.9254 8.74443 2.99005 8.50134C3.05367 8.26082 3.12813 8.02337 3.21296 7.78951C3.25278 7.67873 3.29521 7.56898 3.3402 7.46026C3.3371 7.46744 3.33399 7.4741 3.32985 7.48231C3.33968 7.46128 3.34847 7.43923 3.35778 7.41769C3.38623 7.35307 3.4152 7.28948 3.44468 7.22588C3.65208 6.78278 3.89776 6.35763 4.17809 5.95607C4.24377 5.86171 4.31153 5.76837 4.38135 5.67708C4.37669 5.68272 4.37359 5.68631 4.3679 5.69298C4.38652 5.67093 4.40411 5.64733 4.42221 5.62477C4.46204 5.57502 4.50238 5.52579 4.54324 5.47656C4.70306 5.28578 4.87168 5.10166 5.04753 4.92473C5.21924 4.75241 5.39871 4.58676 5.58439 4.42932C5.66973 4.357 5.75663 4.28726 5.84455 4.21802C5.83679 4.22315 5.83111 4.22777 5.8218 4.23443C5.83473 4.2252 5.84714 4.21546 5.85955 4.20623C5.86266 4.20366 5.86524 4.20161 5.86834 4.19905C5.87662 4.19238 5.88696 4.1852 5.89524 4.17956C5.89886 4.17699 5.90196 4.17443 5.90558 4.17187C5.96144 4.13032 6.01833 4.0893 6.07523 4.04929C6.47658 3.76671 6.90226 3.51798 7.34603 3.3072C7.44792 3.25848 7.55136 3.21284 7.65532 3.16771C7.67394 3.16001 7.69308 3.15232 7.7117 3.14514C7.7779 3.11899 7.8441 3.09334 7.91082 3.06873C8.14564 2.98205 8.38356 2.90564 8.6251 2.83948C8.86922 2.77281 9.11594 2.7164 9.36472 2.67076C9.48419 2.6487 9.60574 2.63588 9.72521 2.6128C9.51109 2.65383 9.71797 2.61434 9.77331 2.60767C9.84675 2.59947 9.9202 2.59178 9.99364 2.58562C10.2538 2.56254 10.515 2.55177 10.7762 2.55126C11.146 2.55229 11.5143 2.5769 11.8815 2.62101C11.8877 2.62203 11.8939 2.62255 11.9001 2.62357C11.9425 2.62973 11.9844 2.63639 12.0263 2.64306C12.122 2.65845 12.2177 2.67588 12.3128 2.69486C12.4902 2.72973 12.6661 2.77025 12.8409 2.8164C13.1921 2.90872 13.5371 3.02308 13.8738 3.15899C13.8821 3.16258 13.8909 3.16566 13.8996 3.16925C13.9271 3.18104 13.9545 3.19284 13.9819 3.20463C14.0683 3.24258 14.1536 3.28207 14.2384 3.32259C14.3972 3.399 14.5534 3.48003 14.707 3.56568C15.0179 3.73902 15.3179 3.93134 15.6049 4.14161C15.6354 4.16417 15.6659 4.18674 15.6959 4.2093C15.7011 4.21341 15.7063 4.21751 15.7115 4.2211C15.7802 4.27495 15.8475 4.32982 15.9147 4.38572C16.0528 4.50112 16.1873 4.62061 16.3181 4.74421C16.5711 4.98319 16.8095 5.23705 17.0319 5.50476C17.0614 5.54066 17.0909 5.57656 17.1198 5.61246C17.125 5.61913 17.139 5.63656 17.1519 5.65298C17.1664 5.67144 17.1834 5.694 17.1907 5.70323C17.2186 5.74016 17.246 5.7776 17.2734 5.81504C17.3795 5.96068 17.4808 6.10941 17.5776 6.26121C17.7653 6.55662 17.9355 6.8633 18.0855 7.1787C18.1232 7.25819 18.1599 7.33769 18.1951 7.4182C18.1962 7.42026 18.1972 7.42231 18.1977 7.42487C18.2158 7.47 18.2344 7.51411 18.2525 7.55924C18.3177 7.72386 18.3777 7.89054 18.432 8.05875C18.5427 8.39877 18.6311 8.74597 18.6978 9.09727C18.7149 9.186 18.7299 9.27523 18.7444 9.36447C18.7511 9.40652 18.7563 9.44857 18.763 9.49012C18.7278 9.27728 18.7604 9.47217 18.7661 9.51986C18.7878 9.70192 18.8034 9.88501 18.8132 10.0681C18.8334 10.4445 18.8292 10.8225 18.8003 11.1984C18.7935 11.2836 18.7858 11.3687 18.7765 11.4538C18.7718 11.4964 18.7672 11.5384 18.762 11.581C18.7609 11.5907 18.7594 11.6005 18.7584 11.6107C18.7304 11.7892 18.7004 11.9672 18.6632 12.1441C18.5882 12.499 18.4899 12.8488 18.3704 13.1908C18.343 13.2688 18.3146 13.3462 18.2851 13.4232C18.2701 13.4616 18.2551 13.5001 18.2401 13.538C18.2324 13.557 18.1946 13.6473 18.1905 13.658C18.1868 13.6668 18.1832 13.6745 18.1817 13.678C18.1625 13.7211 18.1434 13.7637 18.1237 13.8063C18.087 13.8857 18.0487 13.9647 18.0094 14.0432C17.8501 14.3606 17.6712 14.6684 17.4736 14.9638C17.3769 15.1084 17.2755 15.2504 17.1705 15.3889C17.1669 15.394 17.1628 15.3992 17.1586 15.4043C17.1348 15.434 17.1115 15.4633 17.0878 15.493C17.0329 15.5602 16.9771 15.6269 16.9202 15.693C16.689 15.9602 16.4407 16.2136 16.1785 16.4505C16.0492 16.5674 15.9168 16.6803 15.7808 16.789C15.7528 16.8116 15.7244 16.8336 15.6959 16.8562C15.6892 16.8613 15.6825 16.8664 15.6763 16.871C15.6018 16.9269 15.5263 16.9813 15.4497 17.0346C15.1627 17.2352 14.8632 17.4183 14.5534 17.5829L14.5529 17.5824Z"/>
</mask>
<path d="M18.7123 15.4002C19.5425 14.0776 20.0116 12.5493 20.0948 10.9958C20.1792 9.42037 19.8373 7.84079 19.1385 6.42635C18.4641 5.06063 17.4333 3.89288 16.195 3.00257C14.9273 2.09072 13.4367 1.54608 11.8887 1.34965C11.5199 1.30299 11.1481 1.28042 10.7762 1.27991C8.57234 1.28452 6.44762 2.06611 4.7584 3.46413C3.14676 4.79806 2.00734 6.71252 1.61839 8.75879C1.4172 9.81936 1.44512 10.8815 1.44512 11.9533V16.2064C1.44512 17.1716 1.4353 18.1373 1.44512 19.1019C1.44512 19.1173 1.44512 19.1327 1.44512 19.1481C1.44512 19.4917 1.73891 19.7835 2.08596 19.7835H9.49247C9.98279 19.7835 10.4736 19.7917 10.9639 19.7815C12.5383 19.7481 14.0983 19.3199 15.4601 18.5347C16.7805 17.7737 17.905 16.6849 18.7118 15.3997L18.7123 15.4002ZM14.5529 17.5824C14.3972 17.6649 14.2395 17.7429 14.0791 17.8162C14.0362 17.8357 13.9933 17.8552 13.9498 17.8737C13.9436 17.8762 13.9307 17.8819 13.9162 17.888C13.8929 17.8973 13.8546 17.9132 13.8412 17.9188C13.7915 17.9383 13.7419 17.9578 13.6922 17.9762C13.3576 18.1024 13.0147 18.208 12.6666 18.2916C12.4845 18.3357 12.3009 18.3737 12.1168 18.4055C12.033 18.4199 11.9487 18.4327 11.8644 18.4455C11.8122 18.4522 11.7594 18.4583 11.7072 18.4634C11.1082 18.5265 10.5052 18.5122 9.90417 18.5122H2.72833V12.4882C2.72833 11.6179 2.68696 10.7333 2.75368 9.8645C2.76299 9.74295 2.77488 9.6214 2.78936 9.50037C2.79143 9.48499 2.79299 9.46909 2.79506 9.4537C2.79506 9.4537 2.79506 9.4537 2.79506 9.45319C2.80592 9.38139 2.81677 9.31011 2.82919 9.23831C2.87212 8.9906 2.9254 8.74443 2.99005 8.50134C3.05367 8.26082 3.12813 8.02337 3.21296 7.78951C3.25278 7.67873 3.29521 7.56898 3.3402 7.46026C3.3371 7.46744 3.33399 7.4741 3.32985 7.48231C3.33968 7.46128 3.34847 7.43923 3.35778 7.41769C3.38623 7.35307 3.4152 7.28948 3.44468 7.22588C3.65208 6.78278 3.89776 6.35763 4.17809 5.95607C4.24377 5.86171 4.31153 5.76837 4.38135 5.67708C4.37669 5.68272 4.37359 5.68631 4.3679 5.69298C4.38652 5.67093 4.40411 5.64733 4.42221 5.62477C4.46204 5.57502 4.50238 5.52579 4.54324 5.47656C4.70306 5.28578 4.87168 5.10166 5.04753 4.92473C5.21924 4.75241 5.39871 4.58676 5.58439 4.42932C5.66973 4.357 5.75663 4.28726 5.84455 4.21802C5.83679 4.22315 5.83111 4.22777 5.8218 4.23443C5.83473 4.2252 5.84714 4.21546 5.85955 4.20623C5.86266 4.20366 5.86524 4.20161 5.86834 4.19905C5.87662 4.19238 5.88696 4.1852 5.89524 4.17956C5.89886 4.17699 5.90196 4.17443 5.90558 4.17187C5.96144 4.13032 6.01833 4.0893 6.07523 4.04929C6.47658 3.76671 6.90226 3.51798 7.34603 3.3072C7.44792 3.25848 7.55136 3.21284 7.65532 3.16771C7.67394 3.16001 7.69308 3.15232 7.7117 3.14514C7.7779 3.11899 7.8441 3.09334 7.91082 3.06873C8.14564 2.98205 8.38356 2.90564 8.6251 2.83948C8.86922 2.77281 9.11594 2.7164 9.36472 2.67076C9.48419 2.6487 9.60574 2.63588 9.72521 2.6128C9.51109 2.65383 9.71797 2.61434 9.77331 2.60767C9.84675 2.59947 9.9202 2.59178 9.99364 2.58562C10.2538 2.56254 10.515 2.55177 10.7762 2.55126C11.146 2.55229 11.5143 2.5769 11.8815 2.62101C11.8877 2.62203 11.8939 2.62255 11.9001 2.62357C11.9425 2.62973 11.9844 2.63639 12.0263 2.64306C12.122 2.65845 12.2177 2.67588 12.3128 2.69486C12.4902 2.72973 12.6661 2.77025 12.8409 2.8164C13.1921 2.90872 13.5371 3.02308 13.8738 3.15899C13.8821 3.16258 13.8909 3.16566 13.8996 3.16925C13.9271 3.18104 13.9545 3.19284 13.9819 3.20463C14.0683 3.24258 14.1536 3.28207 14.2384 3.32259C14.3972 3.399 14.5534 3.48003 14.707 3.56568C15.0179 3.73902 15.3179 3.93134 15.6049 4.14161C15.6354 4.16417 15.6659 4.18674 15.6959 4.2093C15.7011 4.21341 15.7063 4.21751 15.7115 4.2211C15.7802 4.27495 15.8475 4.32982 15.9147 4.38572C16.0528 4.50112 16.1873 4.62061 16.3181 4.74421C16.5711 4.98319 16.8095 5.23705 17.0319 5.50476C17.0614 5.54066 17.0909 5.57656 17.1198 5.61246C17.125 5.61913 17.139 5.63656 17.1519 5.65298C17.1664 5.67144 17.1834 5.694 17.1907 5.70323C17.2186 5.74016 17.246 5.7776 17.2734 5.81504C17.3795 5.96068 17.4808 6.10941 17.5776 6.26121C17.7653 6.55662 17.9355 6.8633 18.0855 7.1787C18.1232 7.25819 18.1599 7.33769 18.1951 7.4182C18.1962 7.42026 18.1972 7.42231 18.1977 7.42487C18.2158 7.47 18.2344 7.51411 18.2525 7.55924C18.3177 7.72386 18.3777 7.89054 18.432 8.05875C18.5427 8.39877 18.6311 8.74597 18.6978 9.09727C18.7149 9.186 18.7299 9.27523 18.7444 9.36447C18.7511 9.40652 18.7563 9.44857 18.763 9.49012C18.7278 9.27728 18.7604 9.47217 18.7661 9.51986C18.7878 9.70192 18.8034 9.88501 18.8132 10.0681C18.8334 10.4445 18.8292 10.8225 18.8003 11.1984C18.7935 11.2836 18.7858 11.3687 18.7765 11.4538C18.7718 11.4964 18.7672 11.5384 18.762 11.581C18.7609 11.5907 18.7594 11.6005 18.7584 11.6107C18.7304 11.7892 18.7004 11.9672 18.6632 12.1441C18.5882 12.499 18.4899 12.8488 18.3704 13.1908C18.343 13.2688 18.3146 13.3462 18.2851 13.4232C18.2701 13.4616 18.2551 13.5001 18.2401 13.538C18.2324 13.557 18.1946 13.6473 18.1905 13.658C18.1868 13.6668 18.1832 13.6745 18.1817 13.678C18.1625 13.7211 18.1434 13.7637 18.1237 13.8063C18.087 13.8857 18.0487 13.9647 18.0094 14.0432C17.8501 14.3606 17.6712 14.6684 17.4736 14.9638C17.3769 15.1084 17.2755 15.2504 17.1705 15.3889C17.1669 15.394 17.1628 15.3992 17.1586 15.4043C17.1348 15.434 17.1115 15.4633 17.0878 15.493C17.0329 15.5602 16.9771 15.6269 16.9202 15.693C16.689 15.9602 16.4407 16.2136 16.1785 16.4505C16.0492 16.5674 15.9168 16.6803 15.7808 16.789C15.7528 16.8116 15.7244 16.8336 15.6959 16.8562C15.6892 16.8613 15.6825 16.8664 15.6763 16.871C15.6018 16.9269 15.5263 16.9813 15.4497 17.0346C15.1627 17.2352 14.8632 17.4183 14.5534 17.5829L14.5529 17.5824Z" fill="#F8B621"/>
<path d="M18.7123 15.4002C19.5425 14.0776 20.0116 12.5493 20.0948 10.9958C20.1792 9.42037 19.8373 7.84079 19.1385 6.42635C18.4641 5.06063 17.4333 3.89288 16.195 3.00257C14.9273 2.09072 13.4367 1.54608 11.8887 1.34965C11.5199 1.30299 11.1481 1.28042 10.7762 1.27991C8.57234 1.28452 6.44762 2.06611 4.7584 3.46413C3.14676 4.79806 2.00734 6.71252 1.61839 8.75879C1.4172 9.81936 1.44512 10.8815 1.44512 11.9533V16.2064C1.44512 17.1716 1.4353 18.1373 1.44512 19.1019C1.44512 19.1173 1.44512 19.1327 1.44512 19.1481C1.44512 19.4917 1.73891 19.7835 2.08596 19.7835H9.49247C9.98279 19.7835 10.4736 19.7917 10.9639 19.7815C12.5383 19.7481 14.0983 19.3199 15.4601 18.5347C16.7805 17.7737 17.905 16.6849 18.7118 15.3997L18.7123 15.4002ZM14.5529 17.5824C14.3972 17.6649 14.2395 17.7429 14.0791 17.8162C14.0362 17.8357 13.9933 17.8552 13.9498 17.8737C13.9436 17.8762 13.9307 17.8819 13.9162 17.888C13.8929 17.8973 13.8546 17.9132 13.8412 17.9188C13.7915 17.9383 13.7419 17.9578 13.6922 17.9762C13.3576 18.1024 13.0147 18.208 12.6666 18.2916C12.4845 18.3357 12.3009 18.3737 12.1168 18.4055C12.033 18.4199 11.9487 18.4327 11.8644 18.4455C11.8122 18.4522 11.7594 18.4583 11.7072 18.4634C11.1082 18.5265 10.5052 18.5122 9.90417 18.5122H2.72833V12.4882C2.72833 11.6179 2.68696 10.7333 2.75368 9.8645C2.76299 9.74295 2.77488 9.6214 2.78936 9.50037C2.79143 9.48499 2.79299 9.46909 2.79506 9.4537C2.79506 9.4537 2.79506 9.4537 2.79506 9.45319C2.80592 9.38139 2.81677 9.31011 2.82919 9.23831C2.87212 8.9906 2.9254 8.74443 2.99005 8.50134C3.05367 8.26082 3.12813 8.02337 3.21296 7.78951C3.25278 7.67873 3.29521 7.56898 3.3402 7.46026C3.3371 7.46744 3.33399 7.4741 3.32985 7.48231C3.33968 7.46128 3.34847 7.43923 3.35778 7.41769C3.38623 7.35307 3.4152 7.28948 3.44468 7.22588C3.65208 6.78278 3.89776 6.35763 4.17809 5.95607C4.24377 5.86171 4.31153 5.76837 4.38135 5.67708C4.37669 5.68272 4.37359 5.68631 4.3679 5.69298C4.38652 5.67093 4.40411 5.64733 4.42221 5.62477C4.46204 5.57502 4.50238 5.52579 4.54324 5.47656C4.70306 5.28578 4.87168 5.10166 5.04753 4.92473C5.21924 4.75241 5.39871 4.58676 5.58439 4.42932C5.66973 4.357 5.75663 4.28726 5.84455 4.21802C5.83679 4.22315 5.83111 4.22777 5.8218 4.23443C5.83473 4.2252 5.84714 4.21546 5.85955 4.20623C5.86266 4.20366 5.86524 4.20161 5.86834 4.19905C5.87662 4.19238 5.88696 4.1852 5.89524 4.17956C5.89886 4.17699 5.90196 4.17443 5.90558 4.17187C5.96144 4.13032 6.01833 4.0893 6.07523 4.04929C6.47658 3.76671 6.90226 3.51798 7.34603 3.3072C7.44792 3.25848 7.55136 3.21284 7.65532 3.16771C7.67394 3.16001 7.69308 3.15232 7.7117 3.14514C7.7779 3.11899 7.8441 3.09334 7.91082 3.06873C8.14564 2.98205 8.38356 2.90564 8.6251 2.83948C8.86922 2.77281 9.11594 2.7164 9.36472 2.67076C9.48419 2.6487 9.60574 2.63588 9.72521 2.6128C9.51109 2.65383 9.71797 2.61434 9.77331 2.60767C9.84675 2.59947 9.9202 2.59178 9.99364 2.58562C10.2538 2.56254 10.515 2.55177 10.7762 2.55126C11.146 2.55229 11.5143 2.5769 11.8815 2.62101C11.8877 2.62203 11.8939 2.62255 11.9001 2.62357C11.9425 2.62973 11.9844 2.63639 12.0263 2.64306C12.122 2.65845 12.2177 2.67588 12.3128 2.69486C12.4902 2.72973 12.6661 2.77025 12.8409 2.8164C13.1921 2.90872 13.5371 3.02308 13.8738 3.15899C13.8821 3.16258 13.8909 3.16566 13.8996 3.16925C13.9271 3.18104 13.9545 3.19284 13.9819 3.20463C14.0683 3.24258 14.1536 3.28207 14.2384 3.32259C14.3972 3.399 14.5534 3.48003 14.707 3.56568C15.0179 3.73902 15.3179 3.93134 15.6049 4.14161C15.6354 4.16417 15.6659 4.18674 15.6959 4.2093C15.7011 4.21341 15.7063 4.21751 15.7115 4.2211C15.7802 4.27495 15.8475 4.32982 15.9147 4.38572C16.0528 4.50112 16.1873 4.62061 16.3181 4.74421C16.5711 4.98319 16.8095 5.23705 17.0319 5.50476C17.0614 5.54066 17.0909 5.57656 17.1198 5.61246C17.125 5.61913 17.139 5.63656 17.1519 5.65298C17.1664 5.67144 17.1834 5.694 17.1907 5.70323C17.2186 5.74016 17.246 5.7776 17.2734 5.81504C17.3795 5.96068 17.4808 6.10941 17.5776 6.26121C17.7653 6.55662 17.9355 6.8633 18.0855 7.1787C18.1232 7.25819 18.1599 7.33769 18.1951 7.4182C18.1962 7.42026 18.1972 7.42231 18.1977 7.42487C18.2158 7.47 18.2344 7.51411 18.2525 7.55924C18.3177 7.72386 18.3777 7.89054 18.432 8.05875C18.5427 8.39877 18.6311 8.74597 18.6978 9.09727C18.7149 9.186 18.7299 9.27523 18.7444 9.36447C18.7511 9.40652 18.7563 9.44857 18.763 9.49012C18.7278 9.27728 18.7604 9.47217 18.7661 9.51986C18.7878 9.70192 18.8034 9.88501 18.8132 10.0681C18.8334 10.4445 18.8292 10.8225 18.8003 11.1984C18.7935 11.2836 18.7858 11.3687 18.7765 11.4538C18.7718 11.4964 18.7672 11.5384 18.762 11.581C18.7609 11.5907 18.7594 11.6005 18.7584 11.6107C18.7304 11.7892 18.7004 11.9672 18.6632 12.1441C18.5882 12.499 18.4899 12.8488 18.3704 13.1908C18.343 13.2688 18.3146 13.3462 18.2851 13.4232C18.2701 13.4616 18.2551 13.5001 18.2401 13.538C18.2324 13.557 18.1946 13.6473 18.1905 13.658C18.1868 13.6668 18.1832 13.6745 18.1817 13.678C18.1625 13.7211 18.1434 13.7637 18.1237 13.8063C18.087 13.8857 18.0487 13.9647 18.0094 14.0432C17.8501 14.3606 17.6712 14.6684 17.4736 14.9638C17.3769 15.1084 17.2755 15.2504 17.1705 15.3889C17.1669 15.394 17.1628 15.3992 17.1586 15.4043C17.1348 15.434 17.1115 15.4633 17.0878 15.493C17.0329 15.5602 16.9771 15.6269 16.9202 15.693C16.689 15.9602 16.4407 16.2136 16.1785 16.4505C16.0492 16.5674 15.9168 16.6803 15.7808 16.789C15.7528 16.8116 15.7244 16.8336 15.6959 16.8562C15.6892 16.8613 15.6825 16.8664 15.6763 16.871C15.6018 16.9269 15.5263 16.9813 15.4497 17.0346C15.1627 17.2352 14.8632 17.4183 14.5534 17.5829L14.5529 17.5824Z" stroke="#F8B621" stroke-width="0.958849" stroke-linejoin="round" mask="url(#path-1-outside-1_489_490)"/>
<path d="M9.74792 10.7715C9.61295 10.2045 9.96712 9.63632 10.539 9.50249C11.1109 9.36865 11.6839 9.71983 11.8188 10.2869C11.9538 10.8539 11.5996 11.4221 11.0278 11.5559C10.4559 11.6898 9.88289 11.3386 9.74792 10.7715Z" fill="#F8B621"/>
<path d="M14.5143 11.506C13.9715 11.283 13.7137 10.6659 13.9385 10.1277C14.1634 9.5894 14.7858 9.33379 15.3286 9.55675C15.8715 9.77971 16.1292 10.3968 15.9044 10.9351C15.6795 11.4734 15.0572 11.729 14.5143 11.506Z" fill="#F8B621"/>
<path d="M6.61773 11.5865C6.03015 11.5865 5.55383 11.1142 5.55383 10.5316C5.55383 9.94899 6.03015 9.47668 6.61773 9.47668C7.20531 9.47668 7.68164 9.94899 7.68164 10.5316C7.68164 11.1142 7.20531 11.5865 6.61773 11.5865Z" fill="#F8B621"/>
</svg>
