<svg width="30" height="30" viewBox="0 0 30 30" fill="none" xmlns="http://www.w3.org/2000/svg">
<path d="M30 14.9978C29.9995 11.6696 28.8922 8.43606 26.8523 5.80629C24.8124 3.17652 21.9558 1.29985 18.7323 0.471732C15.5088 -0.356387 12.1014 -0.0889173 9.04658 1.23203C5.99176 2.55297 3.463 4.85237 1.85842 7.76822C0.253846 10.6841 -0.335422 14.0508 0.183393 17.3383C0.702207 20.6258 2.29964 23.6474 4.72419 25.9273C7.14875 28.2073 10.2627 29.6162 13.5759 29.9322C16.889 30.2482 20.2132 29.4533 23.025 27.6728L30 29.9978L27.675 23.0228C29.1978 20.6235 30.0044 17.8395 30 14.9978Z" fill="#BFBFBF"/>
<circle cx="9.28562" cy="14.998" r="1.90476" fill="white"/>
<circle cx="15" cy="14.998" r="1.90476" fill="white"/>
<circle cx="20.7143" cy="14.998" r="1.90476" fill="white"/>
</svg>
