<svg width="25" height="25" viewBox="0 0 25 25" fill="none" xmlns="http://www.w3.org/2000/svg">
<path d="M17.5642 4.67362L19.3221 2.91581C20.0848 2.15306 21.3215 2.15306 22.0842 2.91581C22.8469 3.67855 22.8469 4.9152 22.0842 5.67794L11.0231 16.739C10.4724 17.2897 9.79316 17.6945 9.04676 17.9169L6.25 18.75L7.0831 15.9533C7.30544 15.2069 7.71026 14.5276 8.26096 13.9769L17.5642 4.67362ZM17.5642 4.67362L20.3125 7.42187M18.75 14.5833V19.5312C18.75 20.8257 17.7007 21.875 16.4062 21.875H5.46875C4.17433 21.875 3.125 20.8257 3.125 19.5312V8.59374C3.125 7.29932 4.17433 6.24999 5.46875 6.24999H10.4167" stroke="#F99811" stroke-width="2" stroke-linecap="round" stroke-linejoin="round"/>
</svg>
