<svg width="18" height="17" viewBox="0 0 18 17" fill="none" xmlns="http://www.w3.org/2000/svg">
<g clip-path="url(#clip0_241_8674)">
<path d="M5.25 15.5833H3C2.60218 15.5833 2.22064 15.434 1.93934 15.1684C1.65804 14.9027 1.5 14.5424 1.5 14.1666V9.20829C1.5 8.83257 1.65804 8.47224 1.93934 8.20656C2.22064 7.94088 2.60218 7.79163 3 7.79163H5.25M10.5 6.37496V3.54163C10.5 2.97804 10.2629 2.43754 9.84099 2.03902C9.41903 1.64051 8.84674 1.41663 8.25 1.41663L5.25 7.79163V15.5833H13.71C14.0717 15.5872 14.4228 15.4674 14.6984 15.2461C14.9741 15.0248 15.1558 14.7169 15.21 14.3791L16.245 8.00413C16.2776 7.80109 16.2631 7.59378 16.2025 7.39655C16.1419 7.19933 16.0366 7.01692 15.8939 6.86195C15.7512 6.70698 15.5746 6.58316 15.3762 6.49907C15.1778 6.41498 14.9624 6.37263 14.745 6.37496H10.5Z" stroke="#F8B621" stroke-width="2" stroke-linecap="round" stroke-linejoin="round"/>
</g>
<defs>
<clipPath id="clip0_241_8674">
<rect width="18" height="17" fill="white"/>
</clipPath>
</defs>
</svg>
