<svg width="33" height="33" viewBox="0 0 33 33" fill="none" xmlns="http://www.w3.org/2000/svg">
<path d="M21.1172 7.63428L21.1182 7.63525C24.3987 7.63584 27.0859 10.2125 27.0859 13.4038C27.0858 16.287 25.3155 18.8849 23.2354 20.9497C21.408 22.7635 19.3024 24.205 17.8203 25.1138L17.2266 25.4702C17.0864 25.5525 16.9295 25.5923 16.7734 25.5923C16.6565 25.5923 16.5392 25.5699 16.4287 25.5239L16.3203 25.4702C14.8513 24.609 12.3997 23.0225 10.3115 20.9497C8.23136 18.8849 6.46111 16.2869 6.46094 13.4038C6.46094 10.2118 9.14909 7.63435 12.4297 7.63428C14.1021 7.63428 15.6567 8.29327 16.7734 9.44385C17.8901 8.29344 19.4451 7.63539 21.1172 7.63525V7.63428ZM21.1182 9.35498C19.6349 9.35498 18.2928 10.0843 17.5225 11.2993C17.3603 11.5558 17.0746 11.7075 16.7734 11.7075C16.4723 11.7074 16.1877 11.5559 16.0254 11.3003C15.2548 10.085 13.9131 9.35498 12.4297 9.35498C10.0992 9.35505 8.22168 11.1825 8.22168 13.4038C8.22182 15.1619 9.09904 17.0631 10.9043 19.0571C12.3614 20.6665 14.3824 22.2732 16.7734 23.7222C19.1646 22.2731 21.1858 20.6665 22.6426 19.0571C24.4476 17.0631 25.3251 15.1619 25.3252 13.4038C25.3252 11.1826 23.4485 9.35521 21.1182 9.35498Z" fill="#F8B621" stroke="#F8B621" stroke-width="0.625"/>
</svg>
