<svg width="42" height="42" viewBox="0 0 42 42" fill="none" xmlns="http://www.w3.org/2000/svg">
<path d="M20.1123 7.33941C20.6027 6.84904 21.3977 6.84904 21.8881 7.33941L36.4362 21.8875C36.9265 22.3778 37.7216 22.3778 38.212 21.8875C38.7023 21.3971 38.7023 20.602 38.212 20.1117L23.6639 5.56361C22.1928 4.09248 19.8076 4.09249 18.3365 5.56361L3.78844 20.1117C3.29806 20.602 3.29806 21.3971 3.78844 21.8875C4.27881 22.3778 5.07386 22.3778 5.56424 21.8875L20.1123 7.33941Z" fill="#F8B621"/>
<path d="M21.0002 10.0031L34.6604 23.6633C34.7101 23.713 34.7609 23.7611 34.8127 23.8075V34.1842C34.8127 35.918 33.4072 37.3234 31.6735 37.3234H26.0229C25.3294 37.3234 24.7672 36.7612 24.7672 36.0678V28.5337C24.7672 27.8402 24.2051 27.278 23.5116 27.278H18.4888C17.7953 27.278 17.2332 27.8402 17.2332 28.5337V36.0678C17.2332 36.7612 16.671 37.3234 15.9775 37.3234H10.3269C8.59317 37.3234 7.1877 35.918 7.1877 34.1842V23.8075C7.23948 23.7611 7.29028 23.713 7.34004 23.6633L21.0002 10.0031Z" fill="#F8B621"/>
</svg>
