<svg width="50" height="31" viewBox="0 0 50 31" fill="none" xmlns="http://www.w3.org/2000/svg">
<path d="M44.078 10.4612C42.7999 10.8723 41.8433 11.2446 40.8519 11.485C39.7636 11.7487 39.5002 12.3846 39.5157 13.4472C39.5738 17.1931 39.4809 20.943 39.5738 24.6851C39.6125 26.2517 39.0781 27.0699 37.5367 27.3879C36.0301 27.6981 34.5545 28.1751 33.0673 28.5823C29.9109 29.447 26.6422 31.2967 23.6175 30.9594C18.7067 30.4165 13.9353 28.497 9.15224 27.004C8.59454 26.8295 8.02135 25.6778 8.00199 24.9604C7.88967 21.4122 7.83158 17.8485 8.01748 14.3042C8.11817 12.3808 7.43655 11.5121 5.65114 11.1205C4.40407 10.8451 3.16475 10.4225 2.01062 9.88345C1.47229 9.63139 0.887488 8.97992 0.806158 8.43703C0.751937 8.07251 1.46068 7.35124 1.96415 7.17674C9.02443 4.75698 16.0925 2.38376 23.1837 0.0725785C23.7724 -0.121312 24.5702 0.111357 25.2131 0.324636C31.6808 2.46519 38.1215 4.69493 44.6086 6.77344C46.2158 7.28919 46.9981 7.99883 46.8277 9.76712C46.6844 11.2368 46.8161 12.7375 46.8084 14.2227C46.8006 16.0453 46.638 17.7128 48.4853 19.1204C50.1971 20.4272 49.8331 23.1378 48.2375 24.6269C46.576 26.178 44.0857 26.1121 42.5056 24.4757C40.9564 22.8703 40.817 20.0317 42.6295 18.7985C44.1361 17.7748 44.1051 16.5882 44.0857 15.1728C44.0663 13.6953 44.0818 12.214 44.0818 10.4651L44.078 10.4612Z" fill="white"/>
</svg>
