<svg width="56" height="34" viewBox="0 0 56 34" fill="none" xmlns="http://www.w3.org/2000/svg">
<path d="M28.4453 6.08808C26.5533 8.17919 24.7085 10.0988 23.0077 12.1327C20.785 14.7868 20.5128 17.9091 21.0212 21.1723C21.4712 24.0506 22.3171 26.8827 22.0628 29.8446C21.9773 30.8274 21.9031 31.7598 20.6703 32.05C19.5656 32.3095 18.1888 31.8807 17.6309 30.933C17.2237 30.2425 16.9604 29.4708 16.6545 28.7275C16.434 28.1888 16.299 27.6105 16.0358 27.0938C15.3631 25.7591 14.0088 25.6337 13.1269 26.8717C12.6882 27.4852 12.434 28.235 12.155 28.9452C11.8333 29.761 11.6376 30.6252 11.2821 31.4233C10.4497 33.288 8.30575 34.029 6.41597 33.1736C5.68031 32.8416 5.25511 32.2787 5.40135 31.5201C5.75005 29.739 6.15275 27.9667 6.60945 26.2098C7.14039 24.1649 7.8108 22.1551 8.31474 20.1058C8.78044 18.2214 7.93679 16.7174 6.48571 15.5718C5.3541 14.6812 4.08075 13.9644 2.89065 13.142C1.44857 12.1481 0.476689 10.8706 0.346205 9.07633C0.274214 8.08684 0.611673 7.47556 1.6713 7.26667C3.3226 6.94124 4.87266 7.24248 6.34848 7.93952C7.8288 8.63656 9.24838 9.46553 10.7444 10.1252C11.7208 10.554 12.767 10.9036 13.8176 11.0817C15.7119 11.4005 17.3969 10.8398 18.6792 9.41715C20.5578 7.33263 22.3665 5.18654 24.2293 3.08663C24.767 2.47975 25.3879 1.94323 25.9661 1.37152C27.9144 -0.554678 31.0932 -0.435939 32.9605 1.62659C33.8919 2.65566 34.6906 3.84744 35.3205 5.0766C37.1 8.5486 40.0787 10.0768 43.8672 10.4154C45.6625 10.5759 47.0731 9.703 48.5466 8.86084C49.847 8.11543 51.2666 7.54152 52.6884 7.03798C53.5523 6.73014 54.6861 6.78512 55.0844 7.65806C55.3791 8.30233 55.2441 9.33579 54.9134 10.0152C53.9257 12.0404 52.054 13.2476 50.1642 14.3954C49.3363 14.8989 48.5016 15.3893 47.694 15.9192C44.3846 18.0763 43.3858 21.1261 43.9032 24.8773C44.1912 26.9553 44.2587 29.0728 44.2722 31.1749C44.2789 32.2501 43.163 33.2836 42.0854 33.532C41.406 33.6882 40.7288 33.6178 40.4679 32.9208C39.9594 31.5641 39.5207 30.181 39.1315 28.7869C38.8008 27.5951 38.5938 26.3704 38.3059 25.1654C38.0922 24.2726 37.4195 23.6768 36.5646 23.7427C36.0224 23.7845 35.343 24.3298 35.0528 24.829C34.3554 26.0273 33.9122 27.3664 33.2507 28.5868C32.7153 29.5741 32.1146 30.5702 31.3475 31.386C30.5196 32.2655 29.6894 32.2061 28.7715 31.4409C27.4734 30.3613 26.7603 28.9738 27.3137 27.3445C28.0156 25.2775 28.8953 23.2656 29.7862 21.2668C30.6658 19.2944 31.6827 17.3792 32.5848 15.4156C33.5859 13.2344 32.9155 11.2378 31.5814 9.45673C30.7063 8.29134 29.5859 7.30185 28.4431 6.09247L28.4453 6.08808Z" fill="white"/>
<path d="M10.2901 4.89615C10.2968 2.6709 12.0426 0.986578 14.3373 0.990975C16.677 0.995373 18.4296 2.71488 18.4183 5.00609C18.4093 7.21375 16.632 8.91567 14.3396 8.91347C11.9819 8.91127 10.2833 7.22474 10.2901 4.89615Z" fill="white"/>
<path d="M47.7187 4.90058C47.721 7.10824 45.9549 8.88052 43.7232 8.90691C41.478 8.93329 39.5747 7.09065 39.5747 4.89399C39.5747 2.70172 41.3835 0.929443 43.6197 0.929443C46.0067 0.929443 47.7165 2.58518 47.7187 4.90278V4.90058Z" fill="white"/>
</svg>
