<svg width="136" height="69" viewBox="0 0 136 69" fill="none" xmlns="http://www.w3.org/2000/svg">
<path d="M15.0233 45.1462H46.8087C46.8087 43.9247 46.7914 42.7639 46.8087 41.603C46.826 40.5201 47.4584 40.0003 48.498 39.983C50.8024 39.957 53.1155 39.9223 55.4199 39.983C57.2305 40.0263 57.785 40.6934 57.785 42.5733C57.785 49.989 57.785 57.4047 57.785 64.8291C57.785 67.4021 57.2132 67.9825 54.5709 67.9825C44.305 67.9825 34.0391 67.9652 23.7732 67.9565C18.1248 67.9565 12.4764 67.9565 6.82794 67.9392C4.61016 67.9392 3.9171 67.2634 3.9171 65.0543C3.89978 57.5346 3.89111 50.0236 3.89111 42.504C3.89111 40.1216 4.48021 39.5325 6.81928 39.5152C8.97642 39.5065 11.1422 39.5585 13.2994 39.5152C14.5036 39.4892 15.006 40.0523 15.006 41.1872C15.006 42.452 15.006 43.7255 15.006 45.1462H15.0233ZM15.11 58.6002H46.6701V54.104H15.11V58.6002Z" fill="white"/>
<path d="M10.8564 8.72598H25.9563C25.9563 7.26189 25.9997 5.75449 25.9477 4.26442C25.8957 2.8783 26.4501 2.3152 27.8623 2.35851C30.1667 2.43648 32.4797 2.37584 34.7928 2.3845C36.4562 2.3845 36.8893 2.77435 36.8893 4.45501C36.898 11.5329 36.872 18.602 36.8633 25.6799C36.8633 28.1836 36.872 30.6959 36.8633 33.1996C36.8547 34.7936 36.2569 35.4174 34.6282 35.4087C23.7732 35.3307 12.9095 35.2354 2.05452 35.1315C0.633756 35.1141 0.0186666 34.4904 0.0100034 33.0436C-0.00732301 23.4621 0.0013402 13.8806 0.0100034 4.29907C0.0100034 2.9736 0.685736 2.35851 2.02853 2.37584C4.28963 2.41049 6.55074 2.37584 8.81184 2.39316C10.2759 2.39316 10.813 2.91296 10.8564 4.42902C10.8997 5.79781 10.8564 7.1666 10.8564 8.73464V8.72598ZM10.7784 25.524H25.939V18.6973H10.7784V25.524Z" fill="white"/>
<path d="M115.032 53.4021C114.269 53.4021 113.689 53.4021 113.108 53.4021C100.72 53.4021 88.3402 53.4021 75.9518 53.4021C73.7946 53.4021 73.7253 53.3242 73.7167 51.1324C73.7167 49.2611 73.6993 47.3985 73.6907 45.5273C73.6907 43.1449 73.7513 43.0929 76.0644 43.0843C91.251 43.0496 106.438 43.0669 121.624 42.9456C126.727 42.9023 125.93 43.1709 125.939 47.1993C125.956 53.4888 125.939 59.7783 125.939 66.0764C125.939 67.9997 125.774 68.1556 123.825 68.1643C121.659 68.1729 119.502 68.1903 117.336 68.2076C115.179 68.2249 115.04 68.0863 115.032 65.9898C115.032 61.8661 115.032 57.7424 115.032 53.4108V53.4021Z" fill="white"/>
<path d="M107.617 12.6182C107.532 14.416 107.48 15.9359 107.389 17.4558C107.337 18.359 107.565 19.0017 108.235 19.2622C109.947 19.9397 111.64 20.73 113.384 21.2337C114.972 21.694 115.142 21.7722 115.142 23.9521C115.142 26.2189 115.142 28.4857 115.142 30.7438C115.142 32.4982 114.595 33.1756 113.339 32.6198C110.67 31.4386 108.04 30.0838 105.391 28.7984C105.254 28.7289 105.117 28.6768 105.078 28.6594C103.848 31.0391 102.67 33.3754 101.44 35.6682C100.906 36.667 100.274 37.5702 99.6625 38.4909C99.0442 39.4288 98.2826 39.5852 97.4754 38.9685C96.1085 37.9176 94.735 36.8581 93.4006 35.729C92.4503 34.93 92.3527 33.5751 93.1728 32.3245C95.1386 29.3021 96.7464 25.9844 97.9571 22.328C98.9921 19.2101 99.5975 15.9793 99.4868 12.3837C98.0027 12.3837 96.5707 12.3837 95.1451 12.3837C93.8107 12.3837 93.3876 11.8973 93.3486 10.1864C93.3095 8.41466 93.3356 6.64291 93.3616 4.87117C93.3811 3.53368 93.9279 2.93441 94.9173 2.95178C100.639 3.01258 106.354 3.056 112.076 3.13417C113.267 3.15154 113.573 3.60316 113.579 5.18383C113.592 6.90346 113.586 8.63178 113.579 10.3514C113.573 12.0363 113.202 12.5748 111.952 12.6182C110.52 12.6616 109.088 12.6269 107.604 12.6269L107.617 12.6182Z" fill="white"/>
<path d="M85.0287 12.3891C84.9123 14.4139 84.7635 16.1693 84.7377 17.9334C84.7312 18.4201 84.9964 19.0284 85.2745 19.3934C87.1695 21.9309 89.1098 24.4076 91.0242 26.9278C91.9944 28.1966 91.975 28.6224 91.076 29.9868C90.2998 31.1686 89.569 32.3939 88.8058 33.5932C87.9715 34.8967 87.3377 34.9402 86.4193 33.7757C85.0611 32.055 83.6964 30.3431 82.2994 28.5789C81.3228 30.4995 80.3979 32.4113 79.4019 34.2536C78.6452 35.6441 77.8108 36.9476 76.97 38.2511C76.1034 39.5894 75.1074 39.6937 74.0984 38.5466C72.9795 37.2778 71.8994 35.9482 70.8064 34.6273C69.875 33.4976 69.8556 32.4635 70.7482 31.2642C73.5616 27.4666 75.6248 23.0693 76.6402 17.8639C76.9765 16.1346 77.08 14.3183 77.3128 12.3543C75.6636 12.3543 74.2019 12.363 72.7467 12.3543C71.5437 12.3456 71.1233 11.8416 71.091 10.2947C71.0586 8.57408 71.0522 6.84473 71.1039 5.12407C71.1492 3.50769 71.6278 2.94282 72.8372 2.95151C78.2248 2.98628 83.6188 3.02104 89.0063 3.08187C90.8043 3.09925 91.0824 3.51638 91.0954 5.96702C91.1018 7.44435 91.1148 8.92169 91.0824 10.399C91.0565 11.6765 90.5909 12.4065 89.5819 12.3978C88.0879 12.3804 86.5874 12.3978 85.0352 12.3978L85.0287 12.3891Z" fill="white"/>
<path d="M57.3865 11.6281C59.4743 11.6281 61.3369 11.6628 63.1908 11.6195C64.5596 11.5935 65.1834 12.1999 65.1747 13.56C65.1574 15.6739 65.1747 17.7877 65.1747 19.9015C65.1747 21.2357 64.473 21.8507 63.1388 21.8334C61.2763 21.8161 59.4223 21.8334 57.4644 21.8334C57.4471 22.3186 57.4038 22.7517 57.4038 23.1762C57.4038 27.2046 57.4385 31.233 57.4298 35.2614C57.4298 37.3579 57.0833 37.6784 55.0561 37.6871C52.8903 37.6871 50.7331 37.6525 48.5673 37.7044C47.3198 37.7391 46.7654 37.124 46.6268 35.9891C46.5748 35.5993 46.6008 35.2008 46.6008 34.8109C46.5575 24.1465 46.5141 13.4821 46.4708 2.81766C46.4621 0.149385 46.5921 0.0194369 49.2864 0.0194369C51.3482 0.0194369 53.4187 0.0714162 55.4806 0.00211044C56.8407 -0.0412056 57.3345 0.582546 57.3258 1.84738C57.3258 4.6456 57.3605 7.45248 57.3778 10.2507C57.3778 10.6839 57.3778 11.117 57.3778 11.6281H57.3865Z" fill="white"/>
<rect x="120.342" y="15.8386" width="14.7275" height="8.66322" rx="4" fill="white"/>
<rect x="129.872" y="17.5713" width="17.3264" height="9.52954" rx="4" transform="rotate(90 129.872 17.5713)" fill="white"/>
</svg>
