<svg width="32" height="32" viewBox="0 0 32 32" fill="none" xmlns="http://www.w3.org/2000/svg">
<path d="M31 15.9978C30.9995 12.6696 29.8922 9.43606 27.8523 6.80629C25.8124 4.17652 22.9558 2.29985 19.7323 1.47173C16.5088 0.643613 13.1014 0.911083 10.0466 2.23203C6.99176 3.55297 4.463 5.85237 2.85842 8.76822C1.25385 11.6841 0.664578 15.0508 1.18339 18.3383C1.70221 21.6258 3.29964 24.6474 5.72419 26.9273C8.14875 29.2073 11.2627 30.6162 14.5759 30.9322C17.889 31.2482 21.2132 30.4533 24.025 28.6728L31 30.9978L28.675 24.0228C30.1978 21.6235 31.0044 18.8395 31 15.9978Z" fill="#F8B621" stroke="#F8B621" stroke-width="2" stroke-linecap="round" stroke-linejoin="round"/>
<circle cx="10.2856" cy="15.998" r="1.90476" fill="white"/>
<circle cx="16" cy="15.998" r="1.90476" fill="white"/>
<circle cx="21.7143" cy="15.998" r="1.90476" fill="white"/>
</svg>
