<svg width="23" height="26" viewBox="0 0 23 26" fill="none" xmlns="http://www.w3.org/2000/svg">
<path d="M15.8011 13.2345C15.8011 12.0974 15.8612 11.0393 15.7696 9.99065C15.7348 9.60214 15.4253 9.16941 15.122 8.87882C14.2471 8.04811 13.846 7.06894 13.8618 5.87183C13.8839 4.20725 13.8649 2.53951 13.8681 0.871773C13.8681 0.262164 14.0955 0.0031586 14.6198 0C15.1442 0 15.3905 0.252688 15.3937 0.862297C15.4 2.38474 15.3937 3.90719 15.3905 5.42963C15.3905 5.53702 15.3463 5.67284 15.3937 5.74549C15.5295 5.94764 15.7032 6.12452 15.8612 6.31088C16.0096 6.1182 16.2781 5.92869 16.2876 5.7297C16.3286 4.63998 16.3097 3.54395 16.3097 2.45107C16.3097 1.93306 16.3002 1.41189 16.3097 0.893883C16.3223 0.259005 16.5782 -0.0126344 17.1214 0.0031586C17.6394 0.0189516 17.8732 0.281115 17.8732 0.893883C17.8732 2.41633 17.8763 3.93877 17.8637 5.46122C17.8605 5.84025 17.8637 6.27929 18.3185 6.28245C18.8144 6.28877 18.8081 5.82761 18.8081 5.43595C18.805 3.9135 18.8113 2.39106 18.8176 0.868614C18.8176 0.296908 19.0829 0.0063172 19.5915 0.0031586C20.1031 0 20.3685 0.274798 20.3653 0.868614C20.359 2.73219 20.3716 4.59576 20.3021 6.45617C20.2706 7.34058 19.9863 8.18709 19.2377 8.76511C18.647 9.22311 18.4228 9.77902 18.4765 10.5308C18.5365 11.4025 18.4923 12.2806 18.4923 13.2314C19.4967 13.2314 20.4759 13.2314 21.4519 13.2314C22.191 13.2314 22.2763 13.323 22.2636 14.0747C22.1815 18.2788 20.2232 21.4121 16.7614 23.6674C16.2591 23.9927 15.9243 24.2991 16.0096 24.9687C16.0728 25.4678 15.7727 25.7141 15.2547 25.7141C12.532 25.7141 9.80928 25.7078 7.08341 25.7015C6.54329 25.7015 6.20532 25.4172 6.26533 24.8834C6.33482 24.2644 6.06002 23.9769 5.5736 23.6737C2.60768 21.8101 0.810434 19.1253 0.150287 15.6888C0.0460531 15.1486 0.0239429 14.5896 0.00183269 14.0368C-0.0202775 13.443 0.153445 13.2724 0.753579 13.2661C1.98859 13.2535 3.22676 13.2472 4.46177 13.244C8.02783 13.2377 11.5939 13.2345 15.1568 13.2314C15.3495 13.2314 15.5453 13.2314 15.798 13.2314L15.8011 13.2345Z" fill="#F9BF3D"/>
</svg>
