<svg width="80" height="96" viewBox="0 0 80 96" fill="none" xmlns="http://www.w3.org/2000/svg">
<g clip-path="url(#clip0_352_1619)">
<path d="M73.2893 55.0292C74.9847 59.0517 76.7312 63.0571 78.3628 67.105C80.1775 71.6074 79.1466 73.3446 74.3585 74.0879C71.9474 74.4617 71.9772 74.4447 73.3574 76.6152C77.0081 82.3706 75.8622 89.0307 68.8846 91.7364C63.0102 94.0131 56.744 94.7479 50.7333 93.1593C42.2009 90.8996 41.3915 86.2656 44.0198 79.4058C44.3649 78.5011 45.1316 77.7705 45.1785 76.6237C44.8036 76.6025 44.4714 76.5557 44.1348 76.5685C39.5086 76.7129 39.7088 76.7086 39.8622 81.2875C40.0752 87.6503 36.8036 92.8747 28.7355 94.5398C22.3031 95.8693 16.1902 94.6502 10.3585 91.9063C6.57997 90.1266 5.06347 85.7049 6.77167 81.7972C7.35953 80.4507 8.17742 79.2019 9.08903 77.5497C7.49158 77.5497 6.06027 77.5666 4.62896 77.5497C1.59595 77.5072 0.211493 76.1055 0.505423 72.9921C0.961227 68.1244 2.38828 63.4903 4.33503 59.0092C4.87177 57.7774 5.62151 56.5456 5.28072 55.0845C9.80468 54.8339 14.3286 54.5875 18.8526 54.3369C18.678 57.2507 20.8505 58.5547 22.8526 59.795C26.0731 61.7871 29.6513 62.9212 33.4341 63.3119C38.6567 63.8556 43.9176 64.0595 49.0763 63.1378C54.5246 62.1651 58.1498 58.8265 59.6194 53.377C64.2413 53.3854 68.7781 54.0863 73.285 55.0292H73.2893Z" fill="#97BFFF"/>
<path d="M59.3383 44.0875C58.4949 39.4153 56.301 35.3164 53.8601 31.3322C53.464 30.6823 52.8804 30.1259 52.3138 29.5992C49.4725 26.953 47.0359 27.3013 45.1274 30.7248C43.9602 32.8188 42.9081 34.9851 41.9453 37.1768C41.464 38.2727 40.7781 38.5742 39.6578 38.5997C38.4096 38.6252 38.3585 37.7205 38.1072 36.9559C37.251 34.3225 36.2627 31.7697 34.2094 29.7776C32.4246 28.0446 30.5289 27.8705 28.4884 29.3231C27.0699 30.3298 26.1455 31.7612 25.2339 33.1884C22.9506 36.7775 21.1785 40.6046 19.9304 44.6695C16.5609 44.2957 13.1998 43.8582 9.94531 42.8558C10.7717 42.8643 11.0571 42.3206 11.4533 41.6749C14.4395 36.7903 16.7994 31.5658 19.9347 26.7534C27.3937 15.3148 44.6716 13.9088 54.3798 22.5143C60.1775 27.6538 63.7728 34.0719 66.9933 40.8552C64.5396 42.1634 61.9794 43.2253 59.334 44.0833L59.3383 44.0875Z" fill="#97BFFF"/>
<path d="M27.2019 49.9746C27.2061 49.8854 27.1635 49.3757 27.2743 48.9042C27.5214 47.8211 28.1902 47.133 29.3659 47.1967C30.5288 47.2604 31.2871 47.94 31.2019 49.0996C30.9165 52.9096 33.2636 54.6723 37.1529 54.9442C38.6353 55.0461 40.1135 55.3732 41.5874 55.3392C45.4 55.2585 47.8962 52.744 48.1135 48.9467C48.1305 48.6663 48.1135 48.3817 48.1263 48.0972C48.1859 46.8866 48.7269 46.0668 50.0091 45.9352C51.3723 45.795 52.0879 46.4704 52.3904 47.7871C53.1912 51.2786 50.1327 57.2039 46.7375 58.5461C41.6896 60.5424 36.6843 59.7439 31.8281 57.9472C29.1273 56.9448 27.2743 53.5085 27.2019 49.9746Z" fill="#C6868B"/>
<path d="M18.8524 54.3368C14.3284 54.5874 9.80446 54.8338 5.2805 55.0844C4.79062 55.0759 4.29647 55.1014 3.81085 55.0546C2.56271 54.9357 1.87688 54.1924 1.90669 52.9776C1.93225 51.8265 2.69051 51.1809 3.81511 51.1894C6.37954 51.2149 8.88859 50.3739 11.4658 50.7476C13.945 50.9048 16.42 50.9006 18.895 50.6372C19.3891 50.6669 19.8918 50.6499 20.3774 50.7434C21.4168 50.9388 22.0217 51.5632 21.945 52.659C21.8684 53.7549 21.2294 54.2943 20.1261 54.2986C19.7001 54.2986 19.2741 54.3241 18.8524 54.3368Z" fill="#090809"/>
<path d="M59.3381 44.0874C61.9835 43.2294 64.5436 42.1676 66.9973 40.8593C68.5564 40.596 69.9622 39.9206 71.3466 39.2113C72.582 38.5784 73.6171 38.8375 74.2646 39.9673C75.0016 41.2586 74.1837 42.1123 73.1059 42.707C68.8333 45.0644 64.1262 46.3599 59.6193 48.1353C58.5969 48.5389 57.7705 48.0631 57.3104 47.1754C56.8163 46.2197 57.1826 45.3914 58.0729 44.818C58.4819 44.5547 58.9164 44.3295 59.3424 44.0874H59.3381Z" fill="#090809"/>
<path d="M9.94953 42.8599C13.2041 43.8581 16.5608 44.2999 19.9346 44.6736C20.9016 44.8903 21.8814 45.0517 22.8271 45.3362C23.8622 45.6506 24.2712 46.4406 24.0752 47.4855C23.8878 48.4964 23.1593 48.849 22.2009 48.8022C21.2126 48.7555 20.2243 48.6833 19.236 48.6238C18.5672 47.9867 17.7706 48.1694 16.9825 48.2755C15.0358 48.0504 13.0933 47.7446 11.1423 47.6257C9.68542 47.5365 8.59489 46.6233 7.28286 46.2112C6.43515 45.9436 6.07732 45.0644 6.28179 44.1597C6.48627 43.2507 7.12951 42.6985 8.07519 42.673C8.69713 42.6561 9.32333 42.7962 9.94953 42.8642V42.8599Z" fill="#090809"/>
<path d="M73.289 55.0292C68.7821 54.0863 64.2453 53.3854 59.6234 53.3769C58.5329 52.9437 57.7107 52.2598 58.1282 50.9771C58.5158 49.7793 59.6532 49.397 60.7182 49.5966C64.6756 50.323 68.7608 49.5117 72.6884 50.7647C73.9152 51.1555 75.1506 51.3848 75.3337 52.761C75.5084 54.082 74.3753 54.6257 73.289 55.0292Z" fill="#090809"/>
<path d="M40.633 7.09161C40.633 8.64196 40.5734 10.2008 40.6501 11.7469C40.7353 13.4034 39.7853 13.8409 38.4051 13.8197C36.9014 13.7942 35.5723 13.2378 35.7214 11.543C35.9855 8.57825 35.7597 5.62196 35.8364 2.66568C35.8833 0.839244 36.8418 0.240342 38.5414 0.206362C40.3604 0.168134 40.6373 1.18754 40.5776 2.65294C40.5223 4.13108 40.5649 5.61772 40.5649 7.09586C40.5862 7.09586 40.6075 7.09586 40.633 7.09586V7.09161Z" fill="#E9C172"/>
<path d="M21.4171 19.061C18.6396 18.1308 15.8026 17.2346 13.5491 15.234C12.4969 14.2995 12.7781 12.9148 13.4213 11.8912C14.1114 10.7953 15.5172 11.0969 16.3095 11.5769C18.2818 12.7619 20.5268 13.2037 22.563 14.1848C23.99 14.8729 24.4884 15.8711 24.1945 17.2133C23.9006 18.5428 22.891 19.1757 21.4171 19.0568V19.061Z" fill="#E9C172"/>
<path d="M60.8759 10.9355C61.7193 10.9015 62.5372 10.9015 62.8184 11.8572C63.1677 13.0338 63.4233 14.4057 62.4691 15.2595C60.6032 16.9372 58.665 18.632 56.1347 19.2649C54.993 19.5495 53.6597 19.7618 53.1017 18.22C52.5734 16.7546 52.9781 15.5483 54.4307 14.8942C55.9558 14.2061 57.0548 13.0253 58.2263 11.9167C58.976 11.2073 59.8535 10.8165 60.8674 10.9397L60.8759 10.9355Z" fill="#E9C172"/>
<path d="M36.4031 45.3405C38.2178 45.3958 39.6619 47.1415 39.5511 49.1421C39.4489 51.045 37.9494 52.5783 36.1986 52.5698C34.3115 52.5656 33.0889 51.1384 33.1741 49.0401C33.2636 46.8059 34.5926 45.2811 36.3988 45.3405H36.4031Z" fill="#090809"/>
<path d="M40.4285 48.7597C40.4753 46.7209 41.8342 45.1875 43.5765 45.2045C45.3571 45.2215 46.5839 46.6232 46.5541 48.6025C46.5243 50.6286 45.1654 52.1407 43.3848 52.1237C41.5573 52.111 40.3773 50.7688 40.4242 48.7554L40.4285 48.7597Z" fill="#090809"/>
<path d="M16.9823 48.2755C17.7661 48.1693 18.567 47.9866 19.2358 48.6238C19.0697 49.2864 18.6224 49.9023 18.895 50.6371C16.4243 50.9004 13.9451 50.9047 11.4658 50.7475C13.0675 50.0467 14.5968 49.142 16.4158 49.0698C16.9312 49.0485 17.2251 48.8446 16.9823 48.2755Z" fill="#97BFFF"/>
</g>
<defs>
<clipPath id="clip0_352_1619">
<rect width="78.7349" height="94.8856" fill="white" transform="translate(0.471191 0.197754)"/>
</clipPath>
</defs>
</svg>
