<svg width="73" height="68" viewBox="0 0 73 68" fill="none" xmlns="http://www.w3.org/2000/svg">
<g clip-path="url(#clip0_352_1595)">
<path d="M15.509 10.102C17.004 6.28788 20.0347 3.91048 23.3663 2.00513C27.5031 -0.35859 31.7988 -0.0438832 35.8983 2.27195C37.8871 3.39737 39.8895 4.51253 41.2662 6.55128C42.4872 8.35742 43.0995 10.3449 43.4343 12.4007C43.6508 13.728 43.7895 14.1795 45.3555 13.9845C51.5792 13.208 57.238 15.0073 62.4774 18.3425C63.4583 18.9172 63.6748 20.4942 65.1462 20.4223C65.1698 20.7405 65.1935 21.0586 65.2172 21.3767C65.3998 22.5192 65.64 23.6378 66.5533 24.4554C66.9625 25.8716 67.4022 27.2809 67.7777 28.7073C69.5027 35.2512 66.2454 41.8806 58.7229 42.8965C54.6369 43.4473 50.5916 44.3777 46.4785 44.8258C39.5648 45.5784 32.6511 45.7665 25.8998 43.8612C22.054 42.7768 18.2826 41.4359 15.1437 38.6001C12.2415 35.9832 10.7769 32.949 10.8953 29.0734C10.9765 26.4052 11.0746 23.7336 11.1625 21.0654C11.3722 20.7986 11.6259 20.8978 11.91 20.9115C14.0647 21.021 16.2024 21.7359 18.3874 20.997C20.701 20.2102 21.4587 18.3562 21.7597 16.1806C21.9897 14.5147 21.2557 13.3175 20.0144 12.2228C18.6817 11.0495 16.9431 10.9469 15.5123 10.1054L15.509 10.102ZM25.6664 12.5273C26.0249 10.6904 25.5446 9.66756 24.3574 9.85912C23.2716 10.0336 22.6256 10.8238 22.2535 11.8295C22.01 12.4828 22.1656 13.0712 22.7338 13.4748C23.7249 14.1727 24.3777 13.4748 25.0508 12.8591C25.1117 12.8044 25.2571 12.8386 25.362 12.8317C25.3383 13.0575 25.3485 13.2935 25.2842 13.5056C25.044 14.3095 25.2977 15.1202 25.9404 15.3939C26.9382 15.8215 27.7466 15.2023 28.3554 14.3574C28.8662 13.6561 29.0793 12.907 28.5415 12.1681C28.1018 11.5661 27.4422 11.3848 26.7522 11.7542C26.3632 11.9629 26.0283 12.2673 25.6664 12.5273ZM55.442 24.1886C55.398 23.9217 55.3472 23.2957 55.1917 22.6937C54.4813 19.9263 52.6312 18.2981 49.9455 17.7473C46.7525 17.094 43.6542 17.2821 41.0903 19.6869C40.5051 20.2342 40.2887 21.0346 40.8637 21.6777C41.4015 22.2832 42.149 22.2764 42.8492 21.7735C44.9902 20.2342 47.314 20.0221 49.7392 20.9252C52.665 22.0164 53.2298 25.1737 50.9738 27.3322C49.8102 28.4439 48.393 28.8715 46.9216 29.2889C45.3555 29.737 45.0308 30.5648 45.7682 31.9433C46.8168 33.9 46.2891 35.1657 44.1446 35.7335C42.9506 36.0516 41.8108 35.8943 40.7487 35.1965C38.8105 33.9274 36.9028 32.6685 35.7528 30.493C35.3232 29.6788 34.5182 28.8544 33.3986 29.6617C32.4347 30.3561 32.7492 31.2387 33.1923 32.0904C34.941 35.4496 37.8398 37.5362 41.2154 38.7643C45.1052 40.177 49.7189 37.0779 49.543 33.3322C49.4855 32.0904 49.959 31.6868 50.8858 31.1839C53.4971 29.7712 55.3811 27.7803 55.4386 24.1817L55.442 24.1886ZM31.217 13.4577C31.2068 15.1202 31.6635 15.9241 32.6714 15.8112C34.0176 15.6641 34.4066 14.6105 34.3796 13.4612C34.3085 10.3517 33.2532 7.59802 30.7705 5.69952C28.9846 4.33465 26.8604 3.6505 24.5637 4.30728C23.8162 4.51937 22.9503 4.83407 23.1363 5.89792C23.3122 6.90019 24.1342 7.03702 24.9662 6.99598C29.3296 6.78731 30.9904 10.0507 31.2136 13.4543L31.217 13.4577Z" fill="#F8B621"/>
<path d="M20.7991 54.1919C21.7022 51.9479 22.5613 49.9741 23.2919 47.9525C23.7722 46.6252 24.4487 46.2421 25.8491 46.6355C28.6531 47.4223 31.4977 48.0825 34.3525 48.6708C35.5938 48.9274 35.9456 49.5807 35.7731 50.7062C35.0222 55.5807 34.2781 60.4552 33.5035 65.3229C33.1788 67.3549 32.4245 67.9193 30.3003 67.9877C23.2108 68.2135 16.4121 66.5681 9.63705 64.7585C8.67306 64.502 8.0879 63.811 7.84775 62.8908C6.79919 58.8885 7.2795 55.2523 10.3744 52.2284C13.307 49.3652 16.8585 49.4781 19.5104 52.5773C19.9027 53.0391 20.268 53.5214 20.8025 54.1885L20.7991 54.1919Z" fill="#582E61"/>
<path d="M45.9949 53.908C45.8122 52.8167 45.6769 51.9342 45.5145 51.0585C45.1661 49.1737 45.4334 48.5579 47.2396 48.2911C49.9557 47.8875 52.6684 47.3812 55.4352 47.3402C56.7307 47.323 57.2583 47.8122 57.5289 49.1634C58.3509 53.2649 59.3757 57.3218 60.3228 61.3993C60.36 61.5635 60.4311 61.7243 60.4615 61.8919C61.1211 65.4529 60.8606 65.9387 57.3057 66.4518C51.8701 67.2385 46.4109 67.8474 40.9111 67.9603C38.0427 68.0185 37.4305 67.5532 36.7033 64.6833C36.2873 63.0379 35.9727 61.3959 36.3583 59.6582C37.5794 54.1919 40.5255 52.3413 45.9881 53.9114L45.9949 53.908Z" fill="#582E61"/>
<path d="M15.8369 10.0953C17.2677 10.9778 19.0096 11.0839 20.3389 12.3085C21.5803 13.451 22.3684 14.7098 22.0842 16.4407C21.658 19.0507 20.5791 20.8671 18.7119 21.4726C16.1954 22.2867 4.42794 20.2069 3.35909 19.3894C-0.419089 17.0701 -0.743803 12.199 2.68937 9.27087C3.52483 8.55935 4.48882 8.42595 5.53737 8.48068C9.02128 8.6654 12.4274 9.37349 15.8335 10.0918L15.8369 10.0953Z" fill="#C6868B"/>
<path d="M65.1458 20.4223C63.6744 20.4907 63.458 18.9172 62.4771 18.3425C64.4625 16.9948 66.4514 15.6504 68.4369 14.3026C68.9984 13.9229 69.5497 13.5022 70.2803 13.5809C71.0346 13.663 71.498 14.1213 71.7179 14.8294C71.9715 15.6504 71.657 16.3106 70.9873 16.745C69.0559 17.9936 67.0975 19.2011 65.1492 20.4223H65.1458Z" fill="#582E61"/>
<path d="M66.5494 24.4554C65.6396 23.6344 65.396 22.5193 65.2134 21.3767C66.8944 20.9834 68.5857 20.6344 70.2498 20.1761C71.4776 19.8374 72.5634 19.8511 72.9152 21.2912C73.2602 22.6937 72.1744 23.1624 71.1022 23.436C69.5936 23.8191 68.0648 24.1202 66.5461 24.4554H66.5494Z" fill="#582E61"/>
<path d="M55.4415 24.1886C55.384 27.7872 53.4966 29.7781 50.8888 31.1909C49.962 31.6937 49.4885 32.0939 49.546 33.3391C49.7219 37.0813 45.1082 40.1839 41.2184 38.7712C37.8427 37.5431 34.944 35.4565 33.1953 32.0973C32.7522 31.2456 32.4376 30.363 33.4016 29.6686C34.5212 28.8613 35.3228 29.6857 35.7558 30.4999C36.9058 32.6754 38.8101 33.9343 40.7516 35.2034C41.8137 35.8978 42.9536 36.0551 44.1476 35.7404C46.2887 35.1726 46.8197 33.9069 45.7712 31.9503C45.0338 30.5751 45.3585 29.7439 46.9246 29.2958C48.3926 28.875 49.8098 28.4508 50.9767 27.3391C53.2328 25.1841 52.6679 22.0233 49.7421 20.9321C47.3169 20.0256 44.9966 20.2411 42.8521 21.7804C42.1554 22.2799 41.4078 22.2867 40.8666 21.6846C40.295 21.0415 40.5115 20.2411 41.0933 19.6938C43.6538 17.289 46.7521 17.1009 49.9485 17.7542C52.6341 18.305 54.4843 19.9332 55.1946 22.7006C55.3468 23.2992 55.401 23.9252 55.4449 24.1955L55.4415 24.1886Z" fill="#5A739C"/>
<path d="M31.2166 13.4578C30.9933 10.0508 29.3326 6.78741 24.9692 6.9995C24.1371 7.04054 23.3152 6.90371 23.1393 5.90144C22.9533 4.84101 23.8192 4.52631 24.5667 4.3108C26.8634 3.65744 28.9909 4.33817 30.7735 5.70304C33.2562 7.60154 34.3115 10.3552 34.3825 13.4647C34.4096 14.614 34.0206 15.6642 32.6744 15.8147C31.6664 15.9242 31.2098 15.1237 31.22 13.4613L31.2166 13.4578Z" fill="#5A739C"/>
<path d="M25.3582 12.8285C25.2533 12.8353 25.1079 12.8011 25.047 12.8559C24.3739 13.4682 23.7211 14.1694 22.73 13.4716C22.1618 13.0714 22.0062 12.4796 22.2497 11.8262C22.6218 10.8205 23.2678 10.0303 24.3536 9.85587C25.5442 9.66431 26.0211 10.6871 25.6626 12.524L25.6964 12.4864C25.3244 12.3598 25.2872 12.5719 25.3278 12.8593L25.3582 12.8251V12.8285Z" fill="#582E61"/>
<path d="M25.6662 12.5274C26.0247 12.2674 26.363 11.9596 26.752 11.7543C27.442 11.3849 28.1049 11.5662 28.5413 12.1682C29.0791 12.9071 28.866 13.6562 28.3552 14.3575C27.743 15.2024 26.938 15.8216 25.9402 15.394C25.2975 15.1169 25.0438 14.3096 25.284 13.5057C25.3482 13.2936 25.3381 13.0576 25.3618 12.8319L25.3313 12.8661C25.4531 12.7429 25.5783 12.6163 25.7 12.4932L25.6662 12.5308V12.5274Z" fill="#582E61"/>
<path d="M25.6999 12.4898C25.5781 12.613 25.453 12.7395 25.3312 12.8627C25.294 12.5753 25.3312 12.3632 25.6999 12.4898Z" fill="#F8B621"/>
</g>
<defs>
<clipPath id="clip0_352_1595">
<rect width="72.6783" height="67.6312" fill="white" transform="translate(0.308105 0.376953)"/>
</clipPath>
</defs>
</svg>
