<svg width="20" height="18" viewBox="0 0 20 18" fill="none" xmlns="http://www.w3.org/2000/svg">
<path fill-rule="evenodd" clip-rule="evenodd" d="M13.4671 3.35864V3.52874C14.2147 3.59429 14.956 3.68048 15.6906 3.78674C15.9626 3.82608 16.2336 3.86817 16.5036 3.91298C16.8232 3.966 17.0374 4.25713 16.9821 4.56323C16.9267 4.86933 16.6228 5.07449 16.3032 5.02147C16.2487 5.01243 16.1941 5.0035 16.1396 4.99468L15.3523 14.7976C15.2581 15.9698 14.2376 16.875 13.0101 16.875H6.87687C5.6494 16.875 4.62887 15.9698 4.53473 14.7976L3.74746 4.99468C3.69288 5.0035 3.63834 5.01243 3.58384 5.02147C3.26426 5.07449 2.96031 4.86933 2.90495 4.56323C2.8496 4.25713 3.06379 3.966 3.38337 3.91298C3.65343 3.86817 3.92446 3.82608 4.19643 3.78674C4.93098 3.68048 5.67235 3.59429 6.41992 3.52874V3.35864C6.41992 2.18529 7.36936 1.18364 8.62446 1.14519C9.06244 1.13177 9.50216 1.125 9.94351 1.125C10.3849 1.125 10.8246 1.13177 11.2626 1.14519C12.5177 1.18364 13.4671 2.18529 13.4671 3.35864ZM8.66201 2.26961C9.08749 2.25657 9.51469 2.25 9.94351 2.25C10.3723 2.25 10.7995 2.25657 11.225 2.26961C11.8159 2.28771 12.2926 2.76295 12.2926 3.35864V3.44312C11.5155 3.39793 10.7323 3.375 9.94351 3.375C9.15474 3.375 8.37149 3.39793 7.59445 3.44312V3.35864C7.59445 2.76295 8.07114 2.28771 8.66201 2.26961ZM8.3842 6.72839C8.37174 6.41795 8.0989 6.17598 7.7748 6.18792C7.45071 6.19986 7.19808 6.46119 7.21054 6.77162L7.48159 13.5216C7.49405 13.8321 7.76689 14.074 8.09099 14.0621C8.41509 14.0501 8.66771 13.7888 8.65525 13.4784L8.3842 6.72839ZM12.6757 6.77162C12.6882 6.46119 12.4356 6.19986 12.1115 6.18792C11.7874 6.17598 11.5146 6.41795 11.5021 6.72839L11.231 13.4784C11.2186 13.7888 11.4712 14.0501 11.7953 14.0621C12.1194 14.074 12.3922 13.8321 12.4047 13.5216L12.6757 6.77162Z" fill="#F8B621"/>
</svg>
