<svg width="38" height="38" viewBox="0 0 38 38" fill="none" xmlns="http://www.w3.org/2000/svg">
<path fill-rule="evenodd" clip-rule="evenodd" d="M13.0907 10.7273C13.0907 7.46377 15.7363 4.81818 18.9998 4.81818C22.2633 4.81818 24.9089 7.46377 24.9089 10.7273C24.9089 13.9908 22.2633 16.6364 18.9998 16.6364C15.7363 16.6364 13.0907 13.9908 13.0907 10.7273Z" fill="#F8B621"/>
<path fill-rule="evenodd" clip-rule="evenodd" d="M24.9089 15.4545C24.9089 12.8437 27.0254 10.7273 29.6362 10.7273C32.247 10.7273 34.3634 12.8437 34.3634 15.4545C34.3634 18.0653 32.247 20.1818 29.6362 20.1818C27.0254 20.1818 24.9089 18.0653 24.9089 15.4545Z" fill="#F8B621"/>
<path fill-rule="evenodd" clip-rule="evenodd" d="M3.63616 15.4545C3.63616 12.8437 5.75264 10.7273 8.36344 10.7273C10.9742 10.7273 13.0907 12.8437 13.0907 15.4545C13.0907 18.0653 10.9742 20.1818 8.36344 20.1818C5.75264 20.1818 3.63616 18.0653 3.63616 15.4545Z" fill="#F8B621"/>
<path fill-rule="evenodd" clip-rule="evenodd" d="M10.0335 23.9125C11.9212 20.9609 15.2311 19 18.9998 19C22.7689 19 26.0792 20.9614 27.9668 23.9135C29.2718 25.9545 29.8363 28.4154 29.5715 30.8149C29.5301 31.1899 29.3122 31.5226 28.985 31.7103C26.0425 33.3987 22.6321 34.3636 18.9998 34.3636C15.3675 34.3636 11.9571 33.3987 9.01461 31.7103C8.6874 31.5226 8.46948 31.1899 8.42809 30.8149C8.16321 28.415 8.72808 25.9536 10.0335 23.9125Z" fill="#F8B621"/>
<path d="M8.09916 22.5513C8.08018 22.5804 8.06132 22.6096 8.04257 22.6389C6.52124 25.0177 5.82502 27.8505 6.03874 30.6433C5.08061 30.4978 4.15096 30.2637 3.25866 29.9494L3.07751 29.8856C2.74706 29.7692 2.51616 29.4691 2.48837 29.1199L2.47313 28.9284C2.46068 28.7719 2.45435 28.6138 2.45435 28.4545C2.45435 25.2796 4.9583 22.6895 8.09916 22.5513Z" fill="#F8B621"/>
<path d="M31.9614 30.6432C32.1751 27.851 31.4792 25.0187 29.9584 22.6403C29.9394 22.6105 29.9203 22.5809 29.901 22.5513C33.0416 22.6898 35.5453 25.2798 35.5453 28.4545C35.5453 28.6138 35.5389 28.7719 35.5265 28.9284L35.5112 29.1199C35.4834 29.4691 35.2525 29.7692 34.9221 29.8856L34.7409 29.9494C33.8488 30.2636 32.9193 30.4977 31.9614 30.6432Z" fill="#F8B621"/>
</svg>
