<svg width="26" height="26" viewBox="0 0 26 26" fill="none" xmlns="http://www.w3.org/2000/svg">
<path fill-rule="evenodd" clip-rule="evenodd" d="M8.52257 6.33328C8.52257 3.70993 10.6492 1.58328 13.2726 1.58328C15.8959 1.58328 18.0226 3.70993 18.0226 6.33328C18.0226 8.95663 15.8959 11.0833 13.2726 11.0833C10.6492 11.0833 8.52257 8.95663 8.52257 6.33328Z" fill="#F8B621"/>
<path fill-rule="evenodd" clip-rule="evenodd" d="M4.56555 21.2222C4.64718 16.483 8.51411 12.6666 13.2726 12.6666C18.0311 12.6666 21.8981 16.4832 21.9796 21.2226C21.985 21.5369 21.8039 21.8246 21.5182 21.9557C19.0071 23.108 16.2139 23.7499 13.2729 23.7499C10.3316 23.7499 7.53819 23.1078 5.02691 21.9554C4.7412 21.8243 4.56013 21.5365 4.56555 21.2222Z" fill="#F8B621"/>
</svg>
