<svg width="38" height="43" viewBox="0 0 38 43" fill="none" xmlns="http://www.w3.org/2000/svg">
<path d="M26.9876 21.9934C26.9876 20.1038 27.089 18.3453 26.9342 16.6027C26.8755 15.957 26.3524 15.2379 25.84 14.755C24.3616 13.3745 23.6837 11.7473 23.7104 9.75793C23.7477 6.9917 23.7157 4.22021 23.7211 1.44873C23.7211 0.435669 24.1054 0.00524902 24.9914 0C25.8774 0 26.2937 0.419922 26.2991 1.43298C26.3097 3.96301 26.2991 6.49304 26.2937 9.02307C26.2937 9.20154 26.219 9.42725 26.2991 9.54797C26.5286 9.88391 26.8221 10.1779 27.089 10.4875C27.3399 10.1674 27.7936 9.85242 27.8096 9.52173C27.879 7.71081 27.8469 5.8894 27.8469 4.07324C27.8469 3.2124 27.8309 2.34631 27.8469 1.48547C27.8683 0.43042 28.3006 -0.0209961 29.2187 0.00524902C30.094 0.0314941 30.489 0.467163 30.489 1.48547C30.489 4.0155 30.4943 6.54553 30.473 9.07556C30.4676 9.70545 30.473 10.4351 31.2416 10.4403C32.0796 10.4508 32.0689 9.68445 32.0689 9.03357C32.0636 6.50354 32.0742 3.97351 32.0849 1.44348C32.0849 0.493408 32.5332 0.010498 33.3926 0.00524902C34.2573 0 34.7056 0.456665 34.7003 1.44348C34.6896 4.54041 34.7109 7.63733 34.5935 10.729C34.5401 12.1987 34.0598 13.6055 32.7948 14.566C31.7967 15.3271 31.4177 16.251 31.5085 17.5002C31.6099 18.949 31.5351 20.4082 31.5351 21.9882C33.2325 21.9882 34.8871 21.9882 36.5364 21.9882C37.7853 21.9882 37.9295 22.1404 37.9081 23.3896C37.7693 30.3761 34.4601 35.5831 28.6102 39.3309C27.7615 39.8716 27.1958 40.3807 27.3399 41.4935C27.4466 42.3229 26.9396 42.7323 26.0642 42.7323C21.4633 42.7323 16.8624 42.7218 12.2561 42.7113C11.3434 42.7113 10.7723 42.2389 10.8737 41.3518C10.9911 40.323 10.5268 39.8453 9.70481 39.3414C4.6929 36.2445 1.65587 31.7828 0.540336 26.0719C0.364199 25.1743 0.326836 24.2452 0.289474 23.3267C0.252111 22.3398 0.545673 22.0564 1.5598 22.0459C3.64675 22.0249 5.73905 22.0144 7.82601 22.0092C13.852 21.9987 19.8781 21.9934 25.8988 21.9882C26.2243 21.9882 26.5553 21.9882 26.9823 21.9882L26.9876 21.9934Z" fill="white"/>
</svg>
