<svg width="23" height="31" viewBox="0 0 23 31" fill="none" xmlns="http://www.w3.org/2000/svg">
<path d="M15.8011 16.2112C15.8011 14.9028 15.8612 13.6853 15.7696 12.4787C15.7348 12.0316 15.4253 11.5337 15.122 11.1994C14.2471 10.2435 13.846 9.11688 13.8618 7.73945C13.8839 5.82414 13.8649 3.90519 13.8681 1.98624C13.8681 1.28481 14.0955 0.986789 14.6198 0.983154C15.1442 0.983154 15.3905 1.2739 15.3937 1.97534C15.4 3.7271 15.3937 5.47887 15.3905 7.23064C15.3905 7.35421 15.3463 7.51048 15.3937 7.59407C15.5295 7.82667 15.7032 8.0302 15.8612 8.24463C16.0096 8.02293 16.2781 7.80487 16.2876 7.5759C16.3286 6.32204 16.3097 5.06092 16.3097 3.80343C16.3097 3.20739 16.3002 2.60772 16.3097 2.01168C16.3223 1.28117 16.5782 0.968617 17.1214 0.986789C17.6394 1.00496 17.8732 1.30661 17.8732 2.01168C17.8732 3.76345 17.8763 5.51521 17.8637 7.26698C17.8605 7.70311 17.8637 8.20828 18.3185 8.21192C18.8144 8.21919 18.8081 7.68857 18.8081 7.23791C18.805 5.48614 18.8113 3.73437 18.8176 1.98261C18.8176 1.32479 19.0829 0.990423 19.5915 0.986789C20.1031 0.983154 20.3685 1.29934 20.3653 1.98261C20.359 4.12688 20.3716 6.27116 20.3021 8.41181C20.2706 9.42943 19.9863 10.4034 19.2377 11.0685C18.647 11.5955 18.4228 12.2352 18.4765 13.1001C18.5365 14.1032 18.4923 15.1136 18.4923 16.2075C19.4967 16.2075 20.4759 16.2075 21.4519 16.2075C22.191 16.2075 22.2763 16.3129 22.2636 17.1779C22.1815 22.0153 20.2232 25.6206 16.7614 28.2155C16.2591 28.5898 15.9243 28.9424 16.0096 29.7129C16.0728 30.2871 15.7727 30.5706 15.2547 30.5706C12.532 30.5706 9.80928 30.5633 7.08341 30.556C6.54329 30.556 6.20532 30.2289 6.26533 29.6147C6.33482 28.9024 6.06002 28.5717 5.5736 28.2228C2.60768 26.0785 0.810434 22.9893 0.150287 19.0351C0.0460531 18.4136 0.0239429 17.7703 0.00183269 17.1343C-0.0202775 16.451 0.153445 16.2548 0.753579 16.2475C1.98859 16.233 3.22676 16.2257 4.46177 16.2221C8.02783 16.2148 11.5939 16.2112 15.1568 16.2075C15.3495 16.2075 15.5453 16.2075 15.798 16.2075L15.8011 16.2112Z" fill="#F8B621"/>
</svg>
